<svg version="1.1" xmlns="http://www.w3.org/2000/svg" width="439" height="550.5" xmlns:xlink="http://www.w3.org/1999/xlink" xmlns:svgjs="http://svgjs.dev/svgjs">
  <defs>
    <style type="text/css">
      <![CDATA[
        rect {
          stroke-width: 1;
          shape-rendering: crispEdges;
        }
        rect.port {
          opacity: 1;
          fill: #326CB2;
        }
        text {
          font-size: 10px;
          font-family: sans-serif;
          text-align: left;
        }
        g.port > text {
          font-size: 8px;
        }
        polyline {
          fill: none;
          stroke: black;
          stroke-width: 1;
          shape-rendering: crispEdges;
        }
        path {
          fill: none;
          stroke: black;
          stroke-width: 1;
          shape-rendering: crispEdges;
        }
        line {
          fill: none;
          shape-rendering: crispEdges;
        }
        rect {
          stroke: black;
        }
        circle {
          stroke: black;
        }
        .error { 
          stroke: red !important;
        }
      ]]>
    </style>
    <marker id="arrow" markerWidth="10" markerHeight="8" refX="10" refY="4" orient="auto">
      <path d="M0,7 L10,4 L0,1 L0,7" style="fill: #000000;" />
    </marker>
  </defs>
  <g>
    <polyline points="209,364 209,404 142,404 142,312 182,312" id="e_U3_8_U3_4_VCC" class="edge" />
    <polyline points="209,364 209,518 342,518 342,224 382,224" id="e_U3_8_PinHead9_1_VCC" class="edge" />
    <g>
      <circle cx="342" cy="518.5" r="3" class="junction" />
    </g>
    <polyline points="209,364 209,518 342,518 342,317 404,317 404,297" id="e_U3_8_R4_2_VCC" class="edge" />
    <g>
      <circle cx="342" cy="317" r="3" class="junction" />
    </g>
    <polyline points="209,364 209,518 404,518 404,498" id="e_U3_8_#PWR1_1_VCC" class="edge" />
    <polyline points="234,364 234,424 322,424 322,174 382,174" id="e_U3_1_PinHead9_3_GND" class="edge" />
    <g>
      <circle cx="322" cy="424.5" r="3" class="junction" />
      <circle cx="322" cy="174.5" r="3" class="junction" />
    </g>
    <polyline points="234,364 234,424 322,424 322,62 404,62 404,42" id="e_U3_1_C7_2_GND" class="edge" />
    <polyline points="234,364 234,424 322,424 322,132 404,132 404,112" id="e_U3_1_C6_2_GND" class="edge" />
    <g>
      <circle cx="322" cy="132" r="3" class="junction" />
    </g>
    <polyline points="234,364 234,424 404,424 404,444" id="e_U3_1_#PWR2_1_GND" class="edge" />
    <polyline points="182,337 162,337 162,384 282,384 282,312 262,312" id="e_U3_2_U3_6_Net_2" class="edge" />
    <polyline points="182,337 122,337 122,538 362,538 362,404 404,404 404,384" id="e_U3_2_R5_2_Net_2" class="edge" />
    <g>
      <circle cx="122" cy="337" r="3" class="junction" />
    </g>
    <polyline points="182,337 122,337 122,82 404,82 404,102" id="e_U3_2_C6_1_Net_2" class="edge" />
    <polyline points="262,287 302,287 302,199 382,199" id="e_U3_3_PinHead9_2_Net_6" class="edge" />
    <polyline points="182,287 102,287 102,12 404,12 404,32" id="e_U3_5_C7_1_Net_5" class="edge" />
    <polyline points="262,337 362,337 362,267 404,267 404,287" id="e_U3_7_R4_1_Net_3" class="edge" />
    <g>
      <circle cx="362" cy="337" r="3" class="junction" />
    </g>
    <polyline points="262,337 404,337 404,374" id="e_U3_7_R5_1_Net_3" class="edge" />
    <rect id="#PWR1" class="node" x="382" y="493.5" width="45" height="0" />
    <g transform="translate(382,493.5)">
      <rect id="#PWR1_1" class="node" x="20" y="0" width="5" height="5" />
      <g id="#PWR1_1" class="port" transform="translate(20,0)">
        <text id="lbl_#PWR1_1" class="label" dominant-baseline="bottom" text-anchor="middle" x="2.5" y="-2" width="0" height="0">
          VCC
        </text>
      </g>
    </g>
    <rect id="#PWR2" class="node" x="382" y="449.5" width="45" height="0" />
    <g transform="translate(382,449.5)">
      <rect id="#PWR2_1" class="node" x="20" y="-5" width="5" height="5" />
      <g id="#PWR2_1" class="port" transform="translate(20,-5)">
        <text id="lbl_#PWR2_1" class="label" dominant-baseline="hanging" text-anchor="middle" x="2.5" y="7" width="0" height="0">
          GND
        </text>
      </g>
    </g>
    <rect id="U3" class="node" x="187" y="264.5" width="70" height="95" />
    <g transform="translate(187,264.5)">
      <rect id="U3_1" class="node" x="45" y="95" width="5" height="5" />
      <g id="U3_1" class="port" transform="translate(45,95)">
        <text id="lbl_U3_1" class="label" dominant-baseline="bottom" text-anchor="middle" x="2.5" y="-2" width="0" height="0">
          GND
        </text>
      </g>
      <rect id="U3_2" class="node" x="-5" y="70" width="5" height="5" />
      <g id="U3_2" class="port" transform="translate(-5,70)">
        <text id="lbl_U3_2" class="label" dominant-baseline="middle" text-anchor="start" x="7" y="2.5" width="0" height="0">
          TR
        </text>
      </g>
      <rect id="U3_3" class="node" x="70" y="20" width="5" height="5" />
      <g id="U3_3" class="port" transform="translate(70,20)">
        <text id="lbl_U3_3" class="label" dominant-baseline="middle" text-anchor="end" x="-2" y="2.5" width="0" height="0">
          Q
        </text>
      </g>
      <rect id="U3_4" class="node" x="-5" y="45" width="5" height="5" />
      <g id="U3_4" class="port" transform="translate(-5,45)">
        <text id="lbl_U3_4" class="label" dominant-baseline="middle" text-anchor="start" x="7" y="2.5" width="0" height="0">
          R
        </text>
      </g>
      <rect id="U3_5" class="node" x="-5" y="20" width="5" height="5" />
      <g id="U3_5" class="port" transform="translate(-5,20)">
        <text id="lbl_U3_5" class="label" dominant-baseline="middle" text-anchor="start" x="7" y="2.5" width="0" height="0">
          CV
        </text>
      </g>
      <rect id="U3_6" class="node" x="70" y="45" width="5" height="5" />
      <g id="U3_6" class="port" transform="translate(70,45)">
        <text id="lbl_U3_6" class="label" dominant-baseline="middle" text-anchor="end" x="-2" y="2.5" width="0" height="0">
          THR
        </text>
      </g>
      <rect id="U3_7" class="node" x="70" y="70" width="5" height="5" />
      <g id="U3_7" class="port" transform="translate(70,70)">
        <text id="lbl_U3_7" class="label" dominant-baseline="middle" text-anchor="end" x="-2" y="2.5" width="0" height="0">
          DIS
        </text>
      </g>
      <rect id="U3_8" class="node" x="20" y="95" width="5" height="5" />
      <g id="U3_8" class="port" transform="translate(20,95)">
        <text id="lbl_U3_8" class="label" dominant-baseline="bottom" text-anchor="middle" x="2.5" y="-2" width="0" height="0">
          VCC
        </text>
      </g>
    </g>
    <rect id="R4" class="node" x="382" y="292" width="45" height="0" />
    <g transform="translate(382,292)">
      <rect id="R4_1" class="node" x="20" y="-5" width="5" height="5" />
      <g id="R4_1" class="port" transform="translate(20,-5)">

      </g>
      <rect id="R4_2" class="node" x="20" y="0" width="5" height="5" />
      <g id="R4_2" class="port" transform="translate(20,0)">

      </g>
    </g>
    <rect id="R5" class="node" x="382" y="379.5" width="45" height="0" />
    <g transform="translate(382,379.5)">
      <rect id="R5_1" class="node" x="20" y="-5" width="5" height="5" />
      <g id="R5_1" class="port" transform="translate(20,-5)">

      </g>
      <rect id="R5_2" class="node" x="20" y="0" width="5" height="5" />
      <g id="R5_2" class="port" transform="translate(20,0)">

      </g>
    </g>
    <rect id="C6" class="node" x="382" y="107" width="45" height="0" />
    <g transform="translate(382,107)">
      <rect id="C6_1" class="node" x="20" y="-5" width="5" height="5" />
      <g id="C6_1" class="port" transform="translate(20,-5)">

      </g>
      <rect id="C6_2" class="node" x="20" y="0" width="5" height="5" />
      <g id="C6_2" class="port" transform="translate(20,0)">

      </g>
    </g>
    <rect id="C7" class="node" x="382" y="37" width="45" height="0" />
    <g transform="translate(382,37)">
      <rect id="C7_1" class="node" x="20" y="-5" width="5" height="5" />
      <g id="C7_1" class="port" transform="translate(20,-5)">

      </g>
      <rect id="C7_2" class="node" x="20" y="0" width="5" height="5" />
      <g id="C7_2" class="port" transform="translate(20,0)">

      </g>
    </g>
    <rect id="Q8" class="node" x="17" y="17" width="45" height="45" />
    <g transform="translate(17,17)">
      <rect id="Q8_1" class="node" x="20" y="45" width="5" height="5" />
      <g id="Q8_1" class="port" transform="translate(20,45)">
        <text id="lbl_Q8_1" class="label" dominant-baseline="bottom" text-anchor="middle" x="2.5" y="-2" width="0" height="0">
          E
        </text>
      </g>
      <rect id="Q8_2" class="node" x="-5" y="20" width="5" height="5" />
      <g id="Q8_2" class="port" transform="translate(-5,20)">
        <text id="lbl_Q8_2" class="label" dominant-baseline="middle" text-anchor="start" x="7" y="2.5" width="0" height="0">
          B
        </text>
      </g>
      <rect id="Q8_3" class="node" x="20" y="-5" width="5" height="5" />
      <g id="Q8_3" class="port" transform="translate(20,-5)">
        <text id="lbl_Q8_3" class="label" dominant-baseline="hanging" text-anchor="middle" x="2.5" y="7" width="0" height="0">
          C
        </text>
      </g>
    </g>
    <rect id="PinHead9" class="node" x="387" y="152" width="0" height="95" />
    <g transform="translate(387,152)">
      <rect id="PinHead9_1" class="node" x="-5" y="70" width="5" height="5" />
      <g id="PinHead9_1" class="port" transform="translate(-5,70)">
        <text id="lbl_PinHead9_1" class="label" dominant-baseline="middle" text-anchor="start" x="7" y="2.5" width="0" height="0">
          P1
        </text>
      </g>
      <rect id="PinHead9_2" class="node" x="-5" y="45" width="5" height="5" />
      <g id="PinHead9_2" class="port" transform="translate(-5,45)">
        <text id="lbl_PinHead9_2" class="label" dominant-baseline="middle" text-anchor="start" x="7" y="2.5" width="0" height="0">
          P2
        </text>
      </g>
      <rect id="PinHead9_3" class="node" x="-5" y="20" width="5" height="5" />
      <g id="PinHead9_3" class="port" transform="translate(-5,20)">
        <text id="lbl_PinHead9_3" class="label" dominant-baseline="middle" text-anchor="start" x="7" y="2.5" width="0" height="0">
          P3
        </text>
      </g>
    </g>
  </g>
</svg>