<svg version="1.1" xmlns="http://www.w3.org/2000/svg" width="441.3" height="637" xmlns:xlink="http://www.w3.org/1999/xlink" xmlns:svgjs="http://svgjs.dev/svgjs">
  <defs>
    <style type="text/css">
      <![CDATA[
        rect {
          stroke-width: 1;
          shape-rendering: crispEdges;
        }
        rect.port {
          opacity: 1;
          fill: #326CB2;
        }
        text {
          font-size: 10px;
          font-family: sans-serif;
          text-align: left;
        }
        g.port > text {
          font-size: 8px;
        }
        polyline {
          fill: none;
          stroke: black;
          stroke-width: 1;
          shape-rendering: crispEdges;
        }
        path {
          fill: none;
          stroke: black;
          stroke-width: 1;
          shape-rendering: crispEdges;
        }
        line {
          fill: none;
          shape-rendering: crispEdges;
        }
        rect {
          stroke: black;
        }
        circle {
          stroke: black;
        }
        .error { 
          stroke: red !important;
        }
      ]]>
    </style>
    <marker id="arrow" markerWidth="10" markerHeight="8" refX="10" refY="4" orient="auto">
      <path d="M0,7 L10,4 L0,1 L0,7" style="fill: #000000;" />
    </marker>
  </defs>
  <g>
    <polyline points="209,411 209,451 130,451 130,361 170,361" id="e_U3_8_U3_4_VCC" class="edge" />
    <polyline points="209,411 209,605 365,605 365,242 405,242" id="e_U3_8_PinHead9_1_VCC" class="edge" />
    <g>
      <circle cx="365.3" cy="605" r="3" class="junction" />
    </g>
    <polyline points="209,411 209,605 365,605 365,365 417,365 417,345" id="e_U3_8_R4_2_VCC" class="edge" />
    <g>
      <circle cx="365.3" cy="365" r="3" class="junction" />
    </g>
    <polyline points="209,411 209,605 417,605 417,585" id="e_U3_8_#PWR1_1_VCC" class="edge" />
    <polyline points="246,411 246,485 345,485 345,192 405,192" id="e_U3_1_PinHead9_3_GND" class="edge" />
    <g>
      <circle cx="345.3" cy="485" r="3" class="junction" />
      <circle cx="345.3" cy="192.5" r="3" class="junction" />
    </g>
    <polyline points="246,411 246,485 345,485 345,71 417,71 417,51" id="e_U3_1_C7_2_GND" class="edge" />
    <polyline points="246,411 246,485 345,485 345,150 417,150 417,130" id="e_U3_1_C6_2_GND" class="edge" />
    <g>
      <circle cx="345.3" cy="150" r="3" class="junction" />
    </g>
    <polyline points="246,411 246,485 417,485 417,505" id="e_U3_1_#PWR2_1_GND" class="edge" />
    <polyline points="170,385 150,385 150,431 305,431 305,361 285,361" id="e_U3_2_U3_6_Net_2" class="edge" />
    <polyline points="170,385 110,385 110,625 385,625 385,465 417,465 417,445" id="e_U3_2_R5_2_Net_2" class="edge" />
    <g>
      <circle cx="110.3" cy="385" r="3" class="junction" />
    </g>
    <polyline points="170,385 110,385 110,91 417,91 417,111" id="e_U3_2_C6_1_Net_2" class="edge" />
    <polyline points="285,337 325,337 325,217 405,217" id="e_U3_3_PinHead9_2_Net_6" class="edge" />
    <polyline points="170,337 90,337 90,12 417,12 417,32" id="e_U3_5_C7_1_Net_5" class="edge" />
    <polyline points="285,385 385,385 385,285 417,285 417,305" id="e_U3_7_R4_1_Net_3" class="edge" />
    <g>
      <circle cx="385.3" cy="385" r="3" class="junction" />
    </g>
    <polyline points="285,385 417,385 417,405" id="e_U3_7_R5_1_Net_3" class="edge" />
<g transform="matrix(1,0,0,1,417.3,572.5)"><polyline points="-4.5,7.5 0,15" fill="none" stroke-width="1"></polyline><polyline points="0,0 0,15" fill="none" stroke-width="1"></polyline><polyline points="0,15 4.5,7.5" fill="none" stroke-width="1"></polyline><text text-anchor="end" transform="matrix(1,0,0,1,-4.5,-17.5)" svgjs:data="{&quot;leading&quot;:&quot;1.3&quot;}"><tspan dy="0" x="0" svgjs:data="{&quot;newLined&quot;:true}">#PWR1</tspan></text></g>
    <g transform="translate(412.8,565)">
      <rect id="#PWR1_1" class="node" x="2" y="15" width="5" height="5" />
      <g id="#PWR1_1" class="port" transform="translate(2,15)">
        <text id="lbl_#PWR1_1" class="label" dominant-baseline="bottom" text-anchor="middle" x="2.5" y="-2" width="0" height="0">
          VCC
        </text>
      </g>
    </g>
<g transform="matrix(1,0,0,1,417.3,517.5)"><polyline points="0,0 0,-7.5 7.5,-7.5 0,-15 -7.5,-7.5 0,-7.5" fill="none" stroke-width="1"></polyline><text text-anchor="end" transform="matrix(1,0,0,1,-7.5,-17.5)" svgjs:data="{&quot;leading&quot;:&quot;1.3&quot;}"><tspan dy="0" x="0" svgjs:data="{&quot;newLined&quot;:true}">#PWR2</tspan></text></g>
    <g transform="translate(409.8,510)">
      <rect id="#PWR2_1" class="node" x="5" y="-5" width="5" height="5" />
      <g id="#PWR2_1" class="port" transform="translate(5,-5)">
        <text id="lbl_#PWR2_1" class="label" dominant-baseline="hanging" text-anchor="middle" x="2.5" y="7" width="0" height="0">
          GND
        </text>
      </g>
    </g>
<g transform="matrix(1,0,0,1,227.8,361.25)"><rect width="105" height="90" x="-52.5" y="-45" fill="none" stroke-width="1"></rect><rect width="105" height="90" x="-52.5" y="-45" fill="none" stroke-width="1"></rect><text text-anchor="end" transform="matrix(1,0,0,1,-52.5,-55)" svgjs:data="{&quot;leading&quot;:&quot;1.3&quot;}"><tspan dy="0" x="0" svgjs:data="{&quot;newLined&quot;:true}">U3</tspan></text></g>
    <g transform="translate(175.3,316.25)">
      <rect id="U3_1" class="node" x="68.33333333333333" y="90" width="5" height="5" />
      <g id="U3_1" class="port" transform="translate(68.33333333333333,90)">
        <text id="lbl_U3_1" class="label" dominant-baseline="bottom" text-anchor="middle" x="2.5" y="-2" width="0" height="0">
          GND
        </text>
      </g>
      <rect id="U3_2" class="node" x="-5" y="66.25" width="5" height="5" />
      <g id="U3_2" class="port" transform="translate(-5,66.25)">
        <text id="lbl_U3_2" class="label" dominant-baseline="middle" text-anchor="start" x="7" y="2.5" width="0" height="0">
          TR
        </text>
      </g>
      <rect id="U3_3" class="node" x="105" y="18.75" width="5" height="5" />
      <g id="U3_3" class="port" transform="translate(105,18.75)">
        <text id="lbl_U3_3" class="label" dominant-baseline="middle" text-anchor="end" x="-2" y="2.5" width="0" height="0">
          Q
        </text>
      </g>
      <rect id="U3_4" class="node" x="-5" y="42.5" width="5" height="5" />
      <g id="U3_4" class="port" transform="translate(-5,42.5)">
        <text id="lbl_U3_4" class="label" dominant-baseline="middle" text-anchor="start" x="7" y="2.5" width="0" height="0">
          R
        </text>
      </g>
      <rect id="U3_5" class="node" x="-5" y="18.75" width="5" height="5" />
      <g id="U3_5" class="port" transform="translate(-5,18.75)">
        <text id="lbl_U3_5" class="label" dominant-baseline="middle" text-anchor="start" x="7" y="2.5" width="0" height="0">
          CV
        </text>
      </g>
      <rect id="U3_6" class="node" x="105" y="42.5" width="5" height="5" />
      <g id="U3_6" class="port" transform="translate(105,42.5)">
        <text id="lbl_U3_6" class="label" dominant-baseline="middle" text-anchor="end" x="-2" y="2.5" width="0" height="0">
          THR
        </text>
      </g>
      <rect id="U3_7" class="node" x="105" y="66.25" width="5" height="5" />
      <g id="U3_7" class="port" transform="translate(105,66.25)">
        <text id="lbl_U3_7" class="label" dominant-baseline="middle" text-anchor="end" x="-2" y="2.5" width="0" height="0">
          DIS
        </text>
      </g>
      <rect id="U3_8" class="node" x="31.666666666666664" y="90" width="5" height="5" />
      <g id="U3_8" class="port" transform="translate(31.666666666666664,90)">
        <text id="lbl_U3_8" class="label" dominant-baseline="bottom" text-anchor="middle" x="2.5" y="-2" width="0" height="0">
          VCC
        </text>
      </g>
    </g>
<g transform="matrix(1,0,0,1,417.3,325)"><polyline points="0,-13.5 0,-15" fill="none" stroke-width="1"></polyline><polyline points="0,13.5 0,15" fill="none" stroke-width="1"></polyline><polyline points="0,-4.5 6,-6.75 0,-9 -6,-11.25 0,-13.5" fill="none" stroke-width="1"></polyline><polyline points="0,4.5 6,2.25 0,0 -6,-2.25 0,-4.5" fill="none" stroke-width="1"></polyline><polyline points="0,13.5 6,11.25 0,9 -6,6.75 0,4.5" fill="none" stroke-width="1"></polyline><text text-anchor="end" transform="matrix(1,0,0,1,-6,-25)" svgjs:data="{&quot;leading&quot;:&quot;1.3&quot;}"><tspan dy="0" x="0" svgjs:data="{&quot;newLined&quot;:true}">R4</tspan></text><text text-anchor="start" transform="matrix(1,0,0,1,6,-25)" svgjs:data="{&quot;leading&quot;:&quot;1.3&quot;}"><tspan dy="0" x="0" svgjs:data="{&quot;newLined&quot;:true}">10k</tspan></text></g>
    <g transform="translate(411.3,310)">
      <rect id="R4_1" class="node" x="3.5" y="-5" width="5" height="5" />
      <g id="R4_1" class="port" transform="translate(3.5,-5)">

      </g>
      <rect id="R4_2" class="node" x="3.5" y="30" width="5" height="5" />
      <g id="R4_2" class="port" transform="translate(3.5,30)">

      </g>
    </g>
<g transform="matrix(1,0,0,1,417.3,425)"><polyline points="0,-13.5 0,-15" fill="none" stroke-width="1"></polyline><polyline points="0,13.5 0,15" fill="none" stroke-width="1"></polyline><polyline points="0,-4.5 6,-6.75 0,-9 -6,-11.25 0,-13.5" fill="none" stroke-width="1"></polyline><polyline points="0,4.5 6,2.25 0,0 -6,-2.25 0,-4.5" fill="none" stroke-width="1"></polyline><polyline points="0,13.5 6,11.25 0,9 -6,6.75 0,4.5" fill="none" stroke-width="1"></polyline><text text-anchor="end" transform="matrix(1,0,0,1,-6,-25)" svgjs:data="{&quot;leading&quot;:&quot;1.3&quot;}"><tspan dy="0" x="0" svgjs:data="{&quot;newLined&quot;:true}">R5</tspan></text><text text-anchor="start" transform="matrix(1,0,0,1,6,-25)" svgjs:data="{&quot;leading&quot;:&quot;1.3&quot;}"><tspan dy="0" x="0" svgjs:data="{&quot;newLined&quot;:true}">715k</tspan></text></g>
    <g transform="translate(411.3,410)">
      <rect id="R5_1" class="node" x="3.5" y="-5" width="5" height="5" />
      <g id="R5_1" class="port" transform="translate(3.5,-5)">

      </g>
      <rect id="R5_2" class="node" x="3.5" y="30" width="5" height="5" />
      <g id="R5_2" class="port" transform="translate(3.5,30)">

      </g>
    </g>
<g transform="matrix(1,0,0,1,417.3,120.5)"><polyline points="-12,-4.5 12,-4.5" fill="none" stroke-width="1"></polyline><polyline points="-12,4.5 12,4.5" fill="none" stroke-width="1"></polyline><text text-anchor="end" transform="matrix(1,0,0,1,-12,-14.5)" svgjs:data="{&quot;leading&quot;:&quot;1.3&quot;}"><tspan dy="0" x="0" svgjs:data="{&quot;newLined&quot;:true}">C6</tspan></text><text text-anchor="start" transform="matrix(1,0,0,1,12,-14.5)" svgjs:data="{&quot;leading&quot;:&quot;1.3&quot;}"><tspan dy="0" x="0" svgjs:data="{&quot;newLined&quot;:true}">1uF</tspan></text></g>
    <g transform="translate(405.3,116)">
      <rect id="C6_1" class="node" x="9.5" y="-5" width="5" height="5" />
      <g id="C6_1" class="port" transform="translate(9.5,-5)">

      </g>
      <rect id="C6_2" class="node" x="9.5" y="9" width="5" height="5" />
      <g id="C6_2" class="port" transform="translate(9.5,9)">

      </g>
    </g>
<g transform="matrix(1,0,0,1,417.3,41.5)"><polyline points="-12,-4.5 12,-4.5" fill="none" stroke-width="1"></polyline><polyline points="-12,4.5 12,4.5" fill="none" stroke-width="1"></polyline><text text-anchor="end" transform="matrix(1,0,0,1,-12,-14.5)" svgjs:data="{&quot;leading&quot;:&quot;1.3&quot;}"><tspan dy="0" x="0" svgjs:data="{&quot;newLined&quot;:true}">C7</tspan></text><text text-anchor="start" transform="matrix(1,0,0,1,12,-14.5)" svgjs:data="{&quot;leading&quot;:&quot;1.3&quot;}"><tspan dy="0" x="0" svgjs:data="{&quot;newLined&quot;:true}">10nF</tspan></text></g>
    <g transform="translate(405.3,37)">
      <rect id="C7_1" class="node" x="9.5" y="-5" width="5" height="5" />
      <g id="C7_1" class="port" transform="translate(9.5,-5)">

      </g>
      <rect id="C7_2" class="node" x="9.5" y="9" width="5" height="5" />
      <g id="C7_2" class="port" transform="translate(9.5,9)">

      </g>
    </g>
<g transform="matrix(1,0,0,1,33.65,33.65)"><circle r="16.65" cx="7.499999999999998" cy="0" fill="none" stroke-width="1"></circle><polyline points="3.75,3.75 15,15" fill="none" stroke-width="1"></polyline><polyline points="3.75,-3.75 15,-15 15,-15" fill="none" stroke-width="1"></polyline><polyline points="3.75,11.25 3.75,-11.25 3.75,-11.25" fill="none" stroke-width="1"></polyline><polyline points="13.5,-10.5 10.5,-13.5 7.5,-7.5 13.5,-10.5 13.5,-10.5" fill="none" stroke-width="1"></polyline><text text-anchor="end" transform="matrix(1,0,0,1,-16.65,-26.65)" svgjs:data="{&quot;leading&quot;:&quot;1.3&quot;}"><tspan dy="0" x="0" svgjs:data="{&quot;newLined&quot;:true}">Q8</tspan></text></g>
    <g transform="translate(17,17)">
      <rect id="Q8_1" class="node" x="14.149999999999999" y="33.3" width="5" height="5" />
      <g id="Q8_1" class="port" transform="translate(14.149999999999999,33.3)">
        <text id="lbl_Q8_1" class="label" dominant-baseline="bottom" text-anchor="middle" x="2.5" y="-2" width="0" height="0">
          E
        </text>
      </g>
      <rect id="Q8_2" class="node" x="-5" y="14.149999999999999" width="5" height="5" />
      <g id="Q8_2" class="port" transform="translate(-5,14.149999999999999)">
        <text id="lbl_Q8_2" class="label" dominant-baseline="middle" text-anchor="start" x="7" y="2.5" width="0" height="0">
          B
        </text>
      </g>
      <rect id="Q8_3" class="node" x="14.149999999999999" y="-5" width="5" height="5" />
      <g id="Q8_3" class="port" transform="translate(14.149999999999999,-5)">
        <text id="lbl_Q8_3" class="label" dominant-baseline="hanging" text-anchor="middle" x="2.5" y="7" width="0" height="0">
          C
        </text>
      </g>
    </g>
    <rect id="PinHead9" class="node" x="410.3" y="170" width="0" height="95" />
    <g transform="translate(410.3,170)">
      <rect id="PinHead9_1" class="node" x="-5" y="70" width="5" height="5" />
      <g id="PinHead9_1" class="port" transform="translate(-5,70)">
        <text id="lbl_PinHead9_1" class="label" dominant-baseline="middle" text-anchor="start" x="7" y="2.5" width="0" height="0">
          P1
        </text>
      </g>
      <rect id="PinHead9_2" class="node" x="-5" y="45" width="5" height="5" />
      <g id="PinHead9_2" class="port" transform="translate(-5,45)">
        <text id="lbl_PinHead9_2" class="label" dominant-baseline="middle" text-anchor="start" x="7" y="2.5" width="0" height="0">
          P2
        </text>
      </g>
      <rect id="PinHead9_3" class="node" x="-5" y="20" width="5" height="5" />
      <g id="PinHead9_3" class="port" transform="translate(-5,20)">
        <text id="lbl_PinHead9_3" class="label" dominant-baseline="middle" text-anchor="start" x="7" y="2.5" width="0" height="0">
          P3
        </text>
      </g>
    </g>
  </g>
</svg>