<svg version="1.1" xmlns="http://www.w3.org/2000/svg" width="206" height="181.5" xmlns:xlink="http://www.w3.org/1999/xlink" xmlns:svgjs="http://svgjs.dev/svgjs">
  <defs>
    <style type="text/css">
      <![CDATA[
        rect {
          stroke-width: 1;
          shape-rendering: crispEdges;
        }
        rect.port {
          opacity: 1;
          fill: #326CB2;
        }
        text {
          font-size: 10px;
          font-family: sans-serif;
          text-align: left;
        }
        g.port > text {
          font-size: 8px;
        }
        polyline {
          fill: none;
          stroke: black;
          stroke-width: 1;
          shape-rendering: crispEdges;
        }
        path {
          fill: none;
          stroke: black;
          stroke-width: 1;
          shape-rendering: crispEdges;
        }
        line {
          fill: none;
          shape-rendering: crispEdges;
        }
        rect {
          stroke: black;
        }
        circle {
          stroke: black;
        }
        .error { 
          stroke: red !important;
        }
      ]]>
    </style>
    <marker id="arrow" markerWidth="10" markerHeight="8" refX="10" refY="4" orient="auto">
      <path d="M0,7 L10,4 L0,1 L0,7" style="fill: #000000;" />
    </marker>
  </defs>
  <g>
    <polyline points="32,102 12,102 12,169 101,169 101,107" id="e_PinHead12_2_R11_2_Net_8" class="edge" />
    <polyline points="32,77 12,77 12,34 164,34" id="e_PinHead12_3_D10_1_Net_9" class="edge" />
    <polyline points="101,97 101,77 194,77 194,34 174,34" id="e_R11_1_D10_2_Net_7" class="edge" />
    <rect id="PinHead12" class="node" x="37" y="54.5" width="0" height="95" />
    <g transform="translate(37,54.5)">
      <rect id="PinHead12_1" class="node" x="-5" y="70" width="5" height="5" />
      <g id="PinHead12_1" class="port" transform="translate(-5,70)">
        <text id="lbl_PinHead12_1" class="label" dominant-baseline="middle" text-anchor="start" x="7" y="2.5" width="0" height="0">
          P1
        </text>
      </g>
      <rect id="PinHead12_2" class="node" x="-5" y="45" width="5" height="5" />
      <g id="PinHead12_2" class="port" transform="translate(-5,45)">
        <text id="lbl_PinHead12_2" class="label" dominant-baseline="middle" text-anchor="start" x="7" y="2.5" width="0" height="0">
          P2
        </text>
      </g>
      <rect id="PinHead12_3" class="node" x="-5" y="20" width="5" height="5" />
      <g id="PinHead12_3" class="port" transform="translate(-5,20)">
        <text id="lbl_PinHead12_3" class="label" dominant-baseline="middle" text-anchor="start" x="7" y="2.5" width="0" height="0">
          P3
        </text>
      </g>
    </g>
    <rect id="R11" class="node" x="79" y="102" width="45" height="0" />
    <g transform="translate(79,102)">
      <rect id="R11_1" class="node" x="20" y="-5" width="5" height="5" />
      <g id="R11_1" class="port" transform="translate(20,-5)">

      </g>
      <rect id="R11_2" class="node" x="20" y="0" width="5" height="5" />
      <g id="R11_2" class="port" transform="translate(20,0)">

      </g>
    </g>
    <rect id="D10" class="node" x="169" y="12" width="0" height="45" />
    <g transform="translate(169,12)">
      <rect id="D10_1" class="node" x="-5" y="20" width="5" height="5" />
      <g id="D10_1" class="port" transform="translate(-5,20)">
        <text id="lbl_D10_1" class="label" dominant-baseline="middle" text-anchor="start" x="7" y="2.5" width="0" height="0">
          K
        </text>
      </g>
      <rect id="D10_2" class="node" x="0" y="20" width="5" height="5" />
      <g id="D10_2" class="port" transform="translate(0,20)">
        <text id="lbl_D10_2" class="label" dominant-baseline="middle" text-anchor="end" x="-2" y="2.5" width="0" height="0">
          A
        </text>
      </g>
    </g>
  </g>
</svg>