<?xml version="1.0" encoding="UTF-8" standalone="no"?>
<!-- Created with Inkscape (http://www.inkscape.org/) -->

<svg
   xmlns:dc="http://purl.org/dc/elements/1.1/"
   xmlns:cc="http://creativecommons.org/ns#"
   xmlns:rdf="http://www.w3.org/1999/02/22-rdf-syntax-ns#"
   xmlns:svg="http://www.w3.org/2000/svg"
   xmlns="http://www.w3.org/2000/svg"
   xmlns:sodipodi="http://sodipodi.sourceforge.net/DTD/sodipodi-0.dtd"
   xmlns:inkscape="http://www.inkscape.org/namespaces/inkscape"
   width="205.90625mm"
   height="57.464664mm"
   viewBox="0 0 205.90625 57.464664"
   version="1.1"
   id="svg8"
   inkscape:version="0.92.5 (2060ec1f9f, 2020-04-08)"
   sodipodi:docname="logo.svg">
  <defs
     id="defs2" />
  <sodipodi:namedview
     id="base"
     pagecolor="#ffffff"
     bordercolor="#666666"
     borderopacity="1.0"
     inkscape:pageopacity="0.0"
     inkscape:pageshadow="2"
     inkscape:zoom="0.98994949"
     inkscape:cx="529.77295"
     inkscape:cy="20.225958"
     inkscape:document-units="mm"
     inkscape:current-layer="layer1"
     showgrid="true"
     fit-margin-top="0"
     fit-margin-left="0"
     fit-margin-right="0"
     fit-margin-bottom="0"
     inkscape:window-width="1920"
     inkscape:window-height="1024"
     inkscape:window-x="-1"
     inkscape:window-y="0"
     inkscape:window-maximized="1">
    <inkscape:grid
       type="xygrid"
       id="grid891"
       units="px"
       spacingx="0.1984375"
       spacingy="0.1984375"
       originx="-2.21875"
       originy="-178.43129" />
  </sodipodi:namedview>
  <metadata
     id="metadata5">
    <rdf:RDF>
      <cc:Work
         rdf:about="">
        <dc:format>image/svg+xml</dc:format>
        <dc:type
           rdf:resource="http://purl.org/dc/dcmitype/StillImage" />
        <dc:title></dc:title>
      </cc:Work>
    </rdf:RDF>
  </metadata>
  <g
     inkscape:label="Layer 1"
     inkscape:groupmode="layer"
     id="layer1"
     transform="translate(-2.2187499,-61.104043)">
    <path
       style="font-style:normal;font-variant:normal;font-weight:normal;font-stretch:normal;font-size:70.55555725px;line-height:1.25;font-family:'Fredoka One';-inkscape-font-specification:'Fredoka One, Normal';font-variant-ligatures:normal;font-variant-caps:normal;font-variant-numeric:normal;font-feature-settings:normal;text-align:start;letter-spacing:0px;word-spacing:0px;writing-mode:lr-tb;text-anchor:start;fill:none;fill-opacity:1;stroke:#000000;stroke-width:13.22834682;stroke-miterlimit:4;stroke-dasharray:none;stroke-opacity:1"
       d="m 109.14258,237.55859 c -11.377789,0 -18.222094,2.22157 -20.533205,6.66602 -1.422224,2.31111 -2.31046,4.44483 -2.666016,6.40039 -0.177763,1.95556 -0.267578,4.97752 -0.267578,9.06641 v 27.46679 l -8.798828,-1.0664 c -4.266666,0 -7.823524,1.15568 -10.667969,3.46679 -1.6,1.42223 -2.843532,3.82145 -3.732422,7.19922 -0.888882,3.2 -1.333984,8.44353 -1.333984,15.73242 0,7.28889 1.245488,12.44458 3.734375,15.4668 2.666668,3.02222 5.954124,4.5332 9.865235,4.5332 3.911106,0 7.555814,-0.26549 10.933593,-0.79882 v 39.46679 c 0,18.03052 3.950059,31.30662 11.822266,39.86133 H 30.25 c -8.448526,0 -15.25,6.80148 -15.25,15.25 0,8.44853 6.801474,15.25 15.25,15.25 h 734.5 c 8.44853,0 15.25,-6.80147 15.25,-15.25 0,-8.44852 -6.80147,-15.25 -15.25,-15.25 h -42.78906 c 0.51229,-1.62628 0.77929,-3.35497 0.77929,-5.19531 0,-3.37779 -1.15373,-7.46563 -3.46484,-12.26563 -4.08889,-8 -8.97907,-12 -14.66797,-12 -2.84445,0 -6.39936,0.97609 -10.66601,2.93164 l -2.9336,1.06836 c -5.86668,2.13332 -13.95647,3.19922 -24.26758,3.19922 -5.86665,0 -11.73292,-1.68864 -17.59961,-5.0664 -5.86665,-3.37779 -8.79882,-7.55543 -8.79882,-12.53321 h 63.19922 c 6.57776,0 12.53384,-2.57881 17.86718,-7.73437 5.51111,-5.33333 8.26563,-13.42118 8.26563,-24.26563 0,-11.02222 -3.02196,-21.15594 -9.06641,-30.40039 -11.55555,-17.42222 -29.68928,-26.13281 -54.40039,-26.13281 -21.68889,0 -39.82067,6.75451 -54.39844,20.26562 -14.4,13.33334 -21.60156,31.19961 -21.60156,53.59961 0,17.77779 5.60078,33.86758 16.80078,48.26758 1.68603,2.21291 3.57203,4.29866 5.64844,6.26172 h -38.60156 c 4.54394,-4.19222 6.82031,-8.59001 6.82031,-13.19531 0,-4.0889 -2.04392,-8.71164 -6.13281,-13.86719 -7.64442,-9.42221 -14.13346,-14.13281 -19.4668,-14.13281 -3.02224,0 -7.02224,1.68864 -12,5.0664 -4.8,3.2 -10.04548,4.80079 -15.73437,4.80079 -5.51111,0 -10.75464,-2.04394 -15.73243,-6.13282 -4.97776,-4.26666 -7.46679,-10.13489 -7.46679,-17.60156 0,-7.64444 2.57882,-13.59857 7.73437,-17.86523 5.15555,-4.26667 10.66655,-6.40039 16.53321,-6.40039 6.04443,0 10.66523,1.51098 13.86523,4.5332 6.22224,3.91111 11.02263,5.86719 14.40039,5.86719 5.86668,0 12.00039,-4.89019 18.40039,-14.66797 3.73332,-5.68889 5.59961,-10.75478 5.59961,-15.19922 0,-4.62222 -2.31138,-8.71202 -6.93359,-12.26758 -1.77779,-1.24444 -4.2668,-2.93307 -7.4668,-5.06641 l -4.26563,-2.66601 c -3.02221,-1.77778 -7.73281,-3.55621 -14.13281,-5.33399 -6.4,-1.95554 -12.97882,-2.93359 -19.73437,-2.93359 -16.71111,0 -32.44364,5.86823 -47.19922,17.60156 -7.28887,5.68889 -13.24495,13.2438 -17.86719,22.66602 -4.62221,9.24444 -6.93359,19.64366 -6.93359,31.19922 0,11.37777 2.31138,21.86681 6.93359,31.46679 4.62224,9.42224 10.57832,16.97908 17.86719,22.66797 0.64569,0.50304 1.2935,0.97915 1.9414,1.46094 H 438.5625 c 0.29173,-2.09924 0.44727,-4.95836 0.44727,-8.66211 v -93.33203 c 0,-4.08889 -0.17961,-7.1128 -0.53516,-9.06836 -0.17776,-2.13333 -0.9762,-4.53255 -2.39844,-7.19922 -1.24445,-2.66667 -3.55583,-4.53294 -6.93359,-5.59961 -3.37779,-1.06666 -8.53346,-1.59961 -15.4668,-1.59961 -12.97776,0 -19.99977,4.97609 -21.0664,14.93164 -1.24445,-1.77777 -2.84523,-3.55425 -4.80079,-5.33203 -1.95557,-1.95555 -5.42262,-3.99948 -10.40039,-6.13281 -4.97778,-2.13333 -10.48876,-3.20117 -16.5332,-3.20117 -15.82222,0 -30.39909,7.02198 -43.73242,21.0664 -13.15556,13.86667 -19.73438,30.13412 -19.73438,48.80079 0,18.48888 6.57882,34.75438 19.73438,48.79882 2.23314,2.38403 4.49836,4.54996 6.79297,6.5293 h -89.83594 c 0.24557,-2.04749 0.37695,-4.73078 0.37695,-8.12891 v -56 c 0,-4.79997 2.04393,-8.88784 6.13282,-12.26562 4.26663,-3.37778 8.7996,-5.06641 13.5996,-5.06641 4.8,0 8.62236,0.7106 11.4668,2.13282 3.02222,1.42222 6.13399,2.13281 9.33399,2.13281 6.4,0 11.28823,-3.37726 14.66601,-10.13281 3.37778,-6.75556 5.06641,-12.97713 5.06641,-18.66602 0,-5.68889 -1.15569,-9.77869 -3.4668,-12.26758 -2.13333,-2.66667 -4.88785,-4.53294 -8.26562,-5.59961 -3.37778,-1.06666 -6.48954,-1.77725 -9.33399,-2.13281 -2.84444,-0.53333 -6.39935,-0.80078 -10.66601,-0.80078 -4.08889,0 -8.88931,1.51098 -14.40039,4.5332 -5.51112,3.02223 -9.15582,5.42144 -10.9336,7.19922 -1.6,1.77778 -2.84353,3.28876 -3.73242,4.5332 0,-3.02222 -0.97804,-5.95438 -2.93359,-8.79882 -2.66667,-4.08889 -9.33334,-6.13282 -20,-6.13282 -11.37778,0 -18.3119,2.39922 -20.80079,7.19922 -1.24444,2.48889 -2.04483,4.80026 -2.40039,6.9336 -0.17779,1.95555 -0.26562,4.97751 -0.26562,9.0664 v 93.59961 7.73438 c 0.022,0.31956 0.0641,0.61842 0.0957,0.92773 h -22.51758 c 0.36494,-2.39392 0.55469,-5.09634 0.55469,-8.12891 0,-9.59996 -2.04392,-15.5541 -6.13281,-17.86523 -2.48889,-1.42211 -4.88811,-2.2225 -7.19922,-2.40039 -2.13333,-0.35555 -5.3349,-0.5332 -9.60156,-0.5332 -4.08889,0 -6.93321,-1.06786 -8.53321,-3.20118 -1.42222,-2.1333 -2.13281,-5.60039 -2.13281,-10.40039 v -36.79882 l 17.33399,1.0664 c 4.08889,0 7.11085,-0.0898 9.0664,-0.26758 2.13334,-0.35555 4.53256,-1.15399 7.19922,-2.39843 4.8,-2.48889 7.20117,-9.33321 7.20117,-20.53321 0,-11.37778 -2.31137,-18.22209 -6.93359,-20.5332 -2.66667,-1.42221 -5.06784,-2.2226 -7.20117,-2.40039 -1.95556,-0.35556 -4.97752,-0.5332 -9.06641,-0.5332 -3.91111,0 -9.77739,0.35529 -17.59961,1.0664 v -26.13281 c 0,-6.22222 -0.44509,-10.75712 -1.33398,-13.60156 -2.31111,-6.57778 -9.51072,-9.86524 -21.59961,-9.86524 z m 556.26562,87.19922 c 5.86669,0 10.30982,1.24354 13.33203,3.73242 3.2,2.48889 4.80079,5.7783 4.80079,9.86719 0,5.68889 -3.37726,8.5332 -10.13282,8.5332 h -33.59961 c 0,-5.33333 2.84431,-10.31137 8.53321,-14.93359 5.68887,-4.8 11.37751,-7.19922 17.0664,-7.19922 z m -297.86523,7.4668 c 7.11112,0 12.70996,2.48902 16.79883,7.4668 4.26668,4.97777 6.40039,10.39895 6.40039,16.26562 0,5.68889 -2.22157,10.93438 -6.66602,15.73438 -4.26667,4.8 -9.6898,7.19923 -16.26758,7.19921 -6.57778,0 -12.1766,-2.31136 -16.79882,-6.93359 -4.62223,-4.8 -6.9336,-10.13333 -6.9336,-16 0,-5.86667 2.13177,-11.28785 6.39844,-16.26562 4.44444,-4.97778 10.13503,-7.4668 17.06836,-7.4668 z"
       transform="scale(0.26458333)"
       id="path914"
       inkscape:connector-curvature="0" />
  </g>
</svg>
