<svg version="1.1" xmlns="http://www.w3.org/2000/svg" width="1684" height="1944">
  <defs>
    <style type="text/css">
      <![CDATA[
        rect {
          opacity: 0.8;
          fill: #6094CC;
          stroke-width: 1;
          stroke: #222222;
        }
        rect.port {
          opacity: 1;
          fill: #326CB2;
        }
        text {
          font-size: 10px;
          font-family: sans-serif;
          /* in elk's coordinates "hanging" would be the correct value" */
          dominant-baseline: hanging;
          text-align: left;
        }
        g.port > text {
          font-size: 8px;
        }
        polyline {
          fill: none;
          stroke: black;
          stroke-width: 1;
        }
        path {
          fill: none;
          stroke: black;
          stroke-width: 1;
        }
        svg {
          vector-effect="non-scaling-stroke"
        }
      ]]>
    </style>
    <marker id="arrow" markerWidth="10" markerHeight="8" refX="10" refY="4" orient="auto">
      <path d="M0,7 L10,4 L0,1 L0,7" style="fill: #000000;" />
    </marker>
  </defs>
  <g>
    <polyline points="517,782 517,732 112,732 112,1087 162,1087" id="e_U1_8_U1_4" class="edge" />
    <polyline points="517,782 517,682 1022,682 1022,1301.5833333333333 1122,1301.5833333333333" id="e_U1_8_PinHead8_1" class="edge" />
    <polyline points="517,782 517,682 1202,682 1202,632" id="e_U1_8_R2_2" class="edge" />
    <polyline points="517,1392 517,1712 1332,1712 1332,1299.9166666666665 1132,1299.9166666666665" id="e_U1_1_PinHead8_3" class="edge" />
    <polyline points="517,1392 517,1712 972,1712 972,1932 1202,1932 1202,1882" id="e_U1_1_C5_2" class="edge" />
    <polyline points="517,1392 517,1712 972,1712 972,1662 1202,1662 1202,1612" id="e_U1_1_C4_2" class="edge" />
    <polyline points="517,1392 517,1712 1382,1712" id="e_U1_1_D6_1" class="edge" />
    <polyline points="162,1238.25 112,1238.25 112,1442 922,1442 922,1087 872,1087" id="e_U1_2_U1_6" class="edge" />
    <polyline points="162,1238.25 62,1238.25 62,322 1202,322 1202,272" id="e_U1_2_R3_2" class="edge" />
    <polyline points="162,1238.25 62,1238.25 62,1492 1202,1492 1202,1542" id="e_U1_2_C4_1" class="edge" />
    <polyline points="872,1238.25 972,1238.25 972,372 1202,372 1202,422" id="e_U1_7_R2_1" class="edge" />
    <polyline points="872,1238.25 972,1238.25 972,12 1202,12 1202,62" id="e_U1_7_R3_1" class="edge" />
    <polyline points="162,935.75 12,935.75 12,1762 1202,1762 1202,1812" id="e_U1_5_C5_1" class="edge" />
    <polyline points="1202,985.75 1202,732 1672,732 1672,1712 1622,1712" id="e_R7_1_D6_2" class="edge" />
    <polyline points="872,935.75 1332,935.75 1332,1298.25 1132,1298.25" id="e_U1_3_PinHead8_2" class="edge" />
    <polyline points="872,935.75 1072,935.75 1072,1245.75 1202,1245.75 1202,1195.75" id="e_U1_3_R7_2" class="edge" />
    <rect id="PinHead8" class="node" x="1127" y="1299.0833333333333" width="0" height="0" />
    <g transform="translate(1127,1299.0833333333333)">
      <g id="PinHead8_1" class="port" transform="translate(-5,0)">
        <text id="lbl_PinHead8_1" class="label" x="10" y="2.5" width="0" height="0">
          P1
        </text>
      </g>
      <g id="PinHead8_2" class="port" transform="translate(0,-3.3333333333333357)">
        <text id="lbl_PinHead8_2" class="label" x="-5" y="2.5" width="0" height="0">
          P2
        </text>
      </g>
      <g id="PinHead8_3" class="port" transform="translate(0,-1.6666666666666714)">
        <text id="lbl_PinHead8_3" class="label" x="-5" y="2.5" width="0" height="0">
          P3
        </text>
      </g>
    </g>
<svg xmlns="http://www.w3.org/2000/svg" version="1.1" xmlns:xlink="http://www.w3.org/1999/xlink" xmlns:svgjs="http://svgjs.dev/svgjs" viewBox="-40 -100 80 200" x="1162" y="990.75" width="80" height="200"><polyline points="0,-90 0,-100" fill="none" stroke-width="1" stroke="black"></polyline><polyline points="0,90 0,100" fill="none" stroke-width="1" stroke="black"></polyline><polyline points="0,-30 40,-45 0,-60 -40,-75 0,-90" fill="none" stroke-width="1" stroke="black"></polyline><polyline points="0,30 40,15 0,0 -40,-15 0,-30" fill="none" stroke-width="1" stroke="black"></polyline><polyline points="0,90 40,75 0,60 -40,45 0,30" fill="none" stroke-width="1" stroke="black"></polyline></svg>
    <g transform="translate(1162,990.75)">
      <g id="R7_1" class="port" transform="translate(37.5,-5)">
        <text id="lbl_R7_1" class="label" x="2.5" y="10" width="0" height="0">
          ~
        </text>
      </g>
      <g id="R7_2" class="port" transform="translate(37.5,200)">
        <text id="lbl_R7_2" class="label" x="2.5" y="-5" width="0" height="0">
          ~
        </text>
      </g>
    </g>
<svg xmlns="http://www.w3.org/2000/svg" version="1.1" xmlns:xlink="http://www.w3.org/1999/xlink" xmlns:svgjs="http://svgjs.dev/svgjs" viewBox="-80 -30 160 60" x="1122" y="1817" width="160" height="60"><polyline points="-80,-30 80,-30" fill="none" stroke-width="1" stroke="black"></polyline><polyline points="-80,30 80,30" fill="none" stroke-width="1" stroke="black"></polyline></svg>
    <g transform="translate(1122,1817)">
      <g id="C5_1" class="port" transform="translate(77.5,-5)">
        <text id="lbl_C5_1" class="label" x="2.5" y="10" width="0" height="0">
          ~
        </text>
      </g>
      <g id="C5_2" class="port" transform="translate(77.5,60)">
        <text id="lbl_C5_2" class="label" x="2.5" y="-5" width="0" height="0">
          ~
        </text>
      </g>
    </g>
<svg xmlns="http://www.w3.org/2000/svg" version="1.1" xmlns:xlink="http://www.w3.org/1999/xlink" xmlns:svgjs="http://svgjs.dev/svgjs" viewBox="-80 -30 160 60" x="1122" y="1547" width="160" height="60"><polyline points="-80,-30 80,-30" fill="none" stroke-width="1" stroke="black"></polyline><polyline points="-80,30 80,30" fill="none" stroke-width="1" stroke="black"></polyline></svg>
    <g transform="translate(1122,1547)">
      <g id="C4_1" class="port" transform="translate(77.5,-5)">
        <text id="lbl_C4_1" class="label" x="2.5" y="10" width="0" height="0">
          ~
        </text>
      </g>
      <g id="C4_2" class="port" transform="translate(77.5,60)">
        <text id="lbl_C4_2" class="label" x="2.5" y="-5" width="0" height="0">
          ~
        </text>
      </g>
    </g>
<svg xmlns="http://www.w3.org/2000/svg" version="1.1" xmlns:xlink="http://www.w3.org/1999/xlink" xmlns:svgjs="http://svgjs.dev/svgjs" viewBox="-40 -100 80 200" x="1162" y="67" width="80" height="200"><polyline points="0,-90 0,-100" fill="none" stroke-width="1" stroke="black"></polyline><polyline points="0,90 0,100" fill="none" stroke-width="1" stroke="black"></polyline><polyline points="0,-30 40,-45 0,-60 -40,-75 0,-90" fill="none" stroke-width="1" stroke="black"></polyline><polyline points="0,30 40,15 0,0 -40,-15 0,-30" fill="none" stroke-width="1" stroke="black"></polyline><polyline points="0,90 40,75 0,60 -40,45 0,30" fill="none" stroke-width="1" stroke="black"></polyline></svg>
    <g transform="translate(1162,67)">
      <g id="R3_1" class="port" transform="translate(37.5,-5)">
        <text id="lbl_R3_1" class="label" x="2.5" y="10" width="0" height="0">
          ~
        </text>
      </g>
      <g id="R3_2" class="port" transform="translate(37.5,200)">
        <text id="lbl_R3_2" class="label" x="2.5" y="-5" width="0" height="0">
          ~
        </text>
      </g>
    </g>
<svg xmlns="http://www.w3.org/2000/svg" version="1.1" xmlns:xlink="http://www.w3.org/1999/xlink" xmlns:svgjs="http://svgjs.dev/svgjs" viewBox="-40 -100 80 200" x="1162" y="427" width="80" height="200"><polyline points="0,-90 0,-100" fill="none" stroke-width="1" stroke="black"></polyline><polyline points="0,90 0,100" fill="none" stroke-width="1" stroke="black"></polyline><polyline points="0,-30 40,-45 0,-60 -40,-75 0,-90" fill="none" stroke-width="1" stroke="black"></polyline><polyline points="0,30 40,15 0,0 -40,-15 0,-30" fill="none" stroke-width="1" stroke="black"></polyline><polyline points="0,90 40,75 0,60 -40,45 0,30" fill="none" stroke-width="1" stroke="black"></polyline></svg>
    <g transform="translate(1162,427)">
      <g id="R2_1" class="port" transform="translate(37.5,-5)">
        <text id="lbl_R2_1" class="label" x="2.5" y="10" width="0" height="0">
          ~
        </text>
      </g>
      <g id="R2_2" class="port" transform="translate(37.5,200)">
        <text id="lbl_R2_2" class="label" x="2.5" y="-5" width="0" height="0">
          ~
        </text>
      </g>
    </g>
<svg xmlns="http://www.w3.org/2000/svg" version="1.1" xmlns:xlink="http://www.w3.org/1999/xlink" xmlns:svgjs="http://svgjs.dev/svgjs" viewBox="-350 -300 700 600" x="167" y="787" width="700" height="600"><rect width="700" height="600" x="-350" y="-300" fill="none" stroke="black"></rect><rect width="700" height="600" x="-350" y="-300" fill="none" stroke="black"></rect></svg>
    <g transform="translate(167,787)">
      <g id="U1_1" class="port" transform="translate(347.5,600)">
        <text id="lbl_U1_1" class="label" x="2.5" y="-5" width="0" height="0">
          GND
        </text>
      </g>
      <g id="U1_2" class="port" transform="translate(-5,448.75)">
        <text id="lbl_U1_2" class="label" x="10" y="2.5" width="0" height="0">
          TR
        </text>
      </g>
      <g id="U1_3" class="port" transform="translate(700,146.25)">
        <text id="lbl_U1_3" class="label" x="-5" y="2.5" width="0" height="0">
          Q
        </text>
      </g>
      <g id="U1_4" class="port" transform="translate(-5,297.5)">
        <text id="lbl_U1_4" class="label" x="10" y="2.5" width="0" height="0">
          R
        </text>
      </g>
      <g id="U1_5" class="port" transform="translate(-5,146.25)">
        <text id="lbl_U1_5" class="label" x="10" y="2.5" width="0" height="0">
          CV
        </text>
      </g>
      <g id="U1_6" class="port" transform="translate(700,297.5)">
        <text id="lbl_U1_6" class="label" x="-5" y="2.5" width="0" height="0">
          THR
        </text>
      </g>
      <g id="U1_7" class="port" transform="translate(700,448.75)">
        <text id="lbl_U1_7" class="label" x="-5" y="2.5" width="0" height="0">
          DIS
        </text>
      </g>
      <g id="U1_8" class="port" transform="translate(347.5,-5)">
        <text id="lbl_U1_8" class="label" x="2.5" y="10" width="0" height="0">
          VCC
        </text>
      </g>
    </g>
<svg xmlns="http://www.w3.org/2000/svg" version="1.1" xmlns:xlink="http://www.w3.org/1999/xlink" xmlns:svgjs="http://svgjs.dev/svgjs" viewBox="-180 -90 230 140" x="1387" y="1642" width="230" height="140"><polyline points="-50,-50 -50,50" fill="none" stroke-width="1" stroke="black"></polyline><polyline points="-50,0 50,0" fill="none" stroke-width="1" stroke="black"></polyline><polyline points="50,-50 50,50 -50,0 50,-50" fill="none" stroke-width="1" stroke="black"></polyline><polyline points="-120,-30 -180,-90 -150,-90 -180,-90 -180,-60" fill="none" stroke-width="1" stroke="black"></polyline><polyline points="-70,-30 -130,-90 -100,-90 -130,-90 -130,-60" fill="none" stroke-width="1" stroke="black"></polyline></svg>
    <g transform="translate(1387,1642)">
      <g id="D6_1" class="port" transform="translate(-5,67.5)">
        <text id="lbl_D6_1" class="label" x="10" y="2.5" width="0" height="0">
          K
        </text>
      </g>
      <g id="D6_2" class="port" transform="translate(230,67.5)">
        <text id="lbl_D6_2" class="label" x="-5" y="2.5" width="0" height="0">
          A
        </text>
      </g>
    </g>
  </g>
</svg>