<svg version="1.1" xmlns="http://www.w3.org/2000/svg" width="254" height="325">
  <defs>
    <style type="text/css">
      <![CDATA[
        rect {
          opacity: 0.8;
          fill: #6094CC;
          stroke-width: 1;
          stroke: #222222;
        }
        rect.port {
          opacity: 1;
          fill: #326CB2;
        }
        text {
          font-size: 10px;
          font-family: sans-serif;
          /* in elk's coordinates "hanging" would be the correct value" */
          dominant-baseline: hanging;
          text-align: left;
        }
        g.port > text {
          font-size: 8px;
        }
        polyline {
          fill: none;
          stroke: black;
          stroke-width: 1;
        }
        path {
          fill: none;
          stroke: black;
          stroke-width: 1;
        }
      ]]>
    </style>
    <marker id="arrow" markerWidth="10" markerHeight="8" refX="10" refY="4" orient="auto">
      <path d="M0,7 L10,4 L0,1 L0,7" style="fill: #000000;" />
    </marker>
  </defs>
  <g>
    <polyline points="92,255.5 112,255.5 112,178 42,178 42,210.5 62,210.5" id="e_U1_8_U1_4" class="edge" />
    <polyline points="92,255.5 132,255.5 132,75.5 152,75.5" id="e_U1_8_PinHead8_1" class="edge" />
    <polyline points="92,255.5 132,255.5 132,188 192,188 192,165.5 182,165.5" id="e_U1_8_R2_2" class="edge" />
    <polyline points="62,255.5 22,255.5 22,50.5 122,50.5 122,45.5 152,45.5" id="e_U1_1_PinHead8_3" class="edge" />
    <polyline points="62,255.5 22,255.5 22,278 142,278 142,233 192,233 192,210.5 182,210.5" id="e_U1_1_C5_2" class="edge" />
    <polyline points="62,255.5 22,255.5 22,278 192,278 192,300.5 182,300.5" id="e_U1_1_C4_2" class="edge" />
    <polyline points="62,255.5 22,255.5 22,278 142,278 142,255.5 152,255.5" id="e_U1_1_D6_1" class="edge" />
    <polyline points="62,240.5 52,240.5 52,188 102,188 102,225.5 92,225.5" id="e_U1_2_U1_6" class="edge" />
    <polyline points="62,240.5 12,240.5 12,12 192,12 192,120.5 182,120.5" id="e_U1_2_R3_2" class="edge" />
    <polyline points="62,240.5 12,240.5 12,300.5 152,300.5" id="e_U1_2_C4_1" class="edge" />
    <polyline points="92,240.5 122,240.5 122,165.5 152,165.5" id="e_U1_7_R2_1" class="edge" />
    <polyline points="92,240.5 122,240.5 122,120.5 152,120.5" id="e_U1_7_R3_1" class="edge" />
    <polyline points="92,210.5 152,210.5" id="e_U1_5_C5_1" class="edge" />
    <polyline points="202,255.5 182,255.5" id="e_R7_1_D6_2" class="edge" />
    <polyline points="62,225.5 32,225.5 32,60.5 152,60.5" id="e_U1_3_PinHead8_2" class="edge" />
    <polyline points="62,225.5 32,225.5 32,22 242,22 242,255.5 232,255.5" id="e_U1_3_R7_2" class="edge" />
    <rect id="PinHead8" class="node" x="157" y="33" width="20" height="55" />
    <g transform="translate(157,33)">
      <rect id="PinHead8_1" class="node" x="-5" y="40" width="5" height="5" />
      <g id="PinHead8_1" class="port" transform="translate(-5,40)">
        <text id="lbl_PinHead8_1" class="label" x="6" y="2.5" width="0" height="0">
          P1
        </text>
      </g>
      <rect id="PinHead8_2" class="node" x="-5" y="25" width="5" height="5" />
      <g id="PinHead8_2" class="port" transform="translate(-5,25)">
        <text id="lbl_PinHead8_2" class="label" x="6" y="2.5" width="0" height="0">
          P2
        </text>
      </g>
      <rect id="PinHead8_3" class="node" x="-5" y="10" width="5" height="5" />
      <g id="PinHead8_3" class="port" transform="translate(-5,10)">
        <text id="lbl_PinHead8_3" class="label" x="6" y="2.5" width="0" height="0">
          P3
        </text>
      </g>
    </g>
    <rect id="R7" class="node" x="207" y="243" width="20" height="25" />
    <g transform="translate(207,243)">
      <rect id="R7_1" class="node" x="-5" y="10" width="5" height="5" />
      <g id="R7_1" class="port" transform="translate(-5,10)">
        <text id="lbl_R7_1" class="label" x="6" y="2.5" width="0" height="0">
          ~
        </text>
      </g>
      <rect id="R7_2" class="node" x="20" y="10" width="5" height="5" />
      <g id="R7_2" class="port" transform="translate(20,10)">
        <text id="lbl_R7_2" class="label" x="-1" y="2.5" width="0" height="0">
          ~
        </text>
      </g>
    </g>
    <rect id="C5" class="node" x="157" y="198" width="20" height="25" />
    <g transform="translate(157,198)">
      <rect id="C5_1" class="node" x="-5" y="10" width="5" height="5" />
      <g id="C5_1" class="port" transform="translate(-5,10)">
        <text id="lbl_C5_1" class="label" x="6" y="2.5" width="0" height="0">
          ~
        </text>
      </g>
      <rect id="C5_2" class="node" x="20" y="10" width="5" height="5" />
      <g id="C5_2" class="port" transform="translate(20,10)">
        <text id="lbl_C5_2" class="label" x="-1" y="2.5" width="0" height="0">
          ~
        </text>
      </g>
    </g>
    <rect id="C4" class="node" x="157" y="288" width="20" height="25" />
    <g transform="translate(157,288)">
      <rect id="C4_1" class="node" x="-5" y="10" width="5" height="5" />
      <g id="C4_1" class="port" transform="translate(-5,10)">
        <text id="lbl_C4_1" class="label" x="6" y="2.5" width="0" height="0">
          ~
        </text>
      </g>
      <rect id="C4_2" class="node" x="20" y="10" width="5" height="5" />
      <g id="C4_2" class="port" transform="translate(20,10)">
        <text id="lbl_C4_2" class="label" x="-1" y="2.5" width="0" height="0">
          ~
        </text>
      </g>
    </g>
    <rect id="R3" class="node" x="157" y="108" width="20" height="25" />
    <g transform="translate(157,108)">
      <rect id="R3_1" class="node" x="-5" y="10" width="5" height="5" />
      <g id="R3_1" class="port" transform="translate(-5,10)">
        <text id="lbl_R3_1" class="label" x="6" y="2.5" width="0" height="0">
          ~
        </text>
      </g>
      <rect id="R3_2" class="node" x="20" y="10" width="5" height="5" />
      <g id="R3_2" class="port" transform="translate(20,10)">
        <text id="lbl_R3_2" class="label" x="-1" y="2.5" width="0" height="0">
          ~
        </text>
      </g>
    </g>
    <rect id="R2" class="node" x="157" y="153" width="20" height="25" />
    <g transform="translate(157,153)">
      <rect id="R2_1" class="node" x="-5" y="10" width="5" height="5" />
      <g id="R2_1" class="port" transform="translate(-5,10)">
        <text id="lbl_R2_1" class="label" x="6" y="2.5" width="0" height="0">
          ~
        </text>
      </g>
      <rect id="R2_2" class="node" x="20" y="10" width="5" height="5" />
      <g id="R2_2" class="port" transform="translate(20,10)">
        <text id="lbl_R2_2" class="label" x="-1" y="2.5" width="0" height="0">
          ~
        </text>
      </g>
    </g>
    <rect id="U1" class="node" x="67" y="198" width="20" height="70" />
    <g transform="translate(67,198)">
      <rect id="U1_1" class="node" x="-5" y="55" width="5" height="5" />
      <g id="U1_1" class="port" transform="translate(-5,55)">
        <text id="lbl_U1_1" class="label" x="6" y="2.5" width="0" height="0">
          GND
        </text>
      </g>
      <rect id="U1_2" class="node" x="-5" y="40" width="5" height="5" />
      <g id="U1_2" class="port" transform="translate(-5,40)">
        <text id="lbl_U1_2" class="label" x="6" y="2.5" width="0" height="0">
          TR
        </text>
      </g>
      <rect id="U1_3" class="node" x="-5" y="25" width="5" height="5" />
      <g id="U1_3" class="port" transform="translate(-5,25)">
        <text id="lbl_U1_3" class="label" x="6" y="2.5" width="0" height="0">
          Q
        </text>
      </g>
      <rect id="U1_4" class="node" x="-5" y="10" width="5" height="5" />
      <g id="U1_4" class="port" transform="translate(-5,10)">
        <text id="lbl_U1_4" class="label" x="6" y="2.5" width="0" height="0">
          R
        </text>
      </g>
      <rect id="U1_5" class="node" x="20" y="10" width="5" height="5" />
      <g id="U1_5" class="port" transform="translate(20,10)">
        <text id="lbl_U1_5" class="label" x="-1" y="2.5" width="0" height="0">
          CV
        </text>
      </g>
      <rect id="U1_6" class="node" x="20" y="25" width="5" height="5" />
      <g id="U1_6" class="port" transform="translate(20,25)">
        <text id="lbl_U1_6" class="label" x="-1" y="2.5" width="0" height="0">
          THR
        </text>
      </g>
      <rect id="U1_7" class="node" x="20" y="40" width="5" height="5" />
      <g id="U1_7" class="port" transform="translate(20,40)">
        <text id="lbl_U1_7" class="label" x="-1" y="2.5" width="0" height="0">
          DIS
        </text>
      </g>
      <rect id="U1_8" class="node" x="20" y="55" width="5" height="5" />
      <g id="U1_8" class="port" transform="translate(20,55)">
        <text id="lbl_U1_8" class="label" x="-1" y="2.5" width="0" height="0">
          VCC
        </text>
      </g>
    </g>
    <rect id="D6" class="node" x="157" y="243" width="20" height="25" />
    <g transform="translate(157,243)">
      <rect id="D6_1" class="node" x="-5" y="10" width="5" height="5" />
      <g id="D6_1" class="port" transform="translate(-5,10)">
        <text id="lbl_D6_1" class="label" x="6" y="2.5" width="0" height="0">
          K
        </text>
      </g>
      <rect id="D6_2" class="node" x="20" y="10" width="5" height="5" />
      <g id="D6_2" class="port" transform="translate(20,10)">
        <text id="lbl_D6_2" class="label" x="-1" y="2.5" width="0" height="0">
          A
        </text>
      </g>
    </g>
  </g>
</svg>