<svg version="1.1" xmlns="http://www.w3.org/2000/svg" width="234" height="290">
  <defs>
    <style type="text/css">
      <![CDATA[
        rect {
          opacity: 0.8;
          fill: #6094CC;
          stroke-width: 1;
          stroke: #222222;
        }
        rect.port {
          opacity: 1;
          fill: #326CB2;
        }
        text {
          font-size: 10px;
          font-family: sans-serif;
          /* in elk's coordinates "hanging" would be the correct value" */
          dominant-baseline: hanging;
          text-align: left;
        }
        g.port > text {
          font-size: 8px;
        }
        polyline {
          fill: none;
          stroke: black;
          stroke-width: 1;
        }
        path {
          fill: none;
          stroke: black;
          stroke-width: 1;
        }
      ]]>
    </style>
    <marker id="arrow" markerWidth="10" markerHeight="8" refX="10" refY="4" orient="auto">
      <path d="M0,7 L10,4 L0,1 L0,7" style="fill: #000000;" />
    </marker>
  </defs>
  <g>
    <polyline points="102,134.5 92,134.5 92,112 152,112 152,179.5 132,179.5" id="e_U1_4_U1_8" class="edge" />
    <polyline points="102,134.5 72,134.5 72,22 212,22 212,44.5 202,44.5" id="e_U1_4_R2_2" class="edge" />
    <polyline points="102,179.5 62,179.5 62,232 222,232 222,89.5 202,89.5" id="e_U1_1_C4_2" class="edge" />
    <polyline points="102,179.5 62,179.5 62,232 222,232 222,134.5 202,134.5" id="e_U1_1_C5_2" class="edge" />
    <polyline points="102,179.5 62,179.5 62,232 162,232 162,254.5 172,254.5" id="e_U1_1_D6_1" class="edge" />
    <polyline points="102,134.5 92,134.5 92,112 152,112 152,179.5 132,179.5" id="e_U1_4_U1_8" class="edge" />
    <polyline points="102,134.5 72,134.5 72,22 212,22 212,44.5 202,44.5" id="e_U1_4_R2_2" class="edge" />
    <polyline points="102,164.5 92,164.5 92,202 142,202 142,149.5 132,149.5" id="e_U1_2_U1_6" class="edge" />
    <polyline points="102,164.5 82,164.5 82,222 212,222 212,179.5 202,179.5" id="e_U1_2_R3_2" class="edge" />
    <polyline points="102,164.5 82,164.5 82,89.5 172,89.5" id="e_U1_2_C4_1" class="edge" />
    <polyline points="132,164.5 162,164.5 162,44.5 172,44.5" id="e_U1_7_R2_1" class="edge" />
    <polyline points="132,164.5 162,164.5 162,179.5 172,179.5" id="e_U1_7_R3_1" class="edge" />
    <polyline points="102,179.5 62,179.5 62,12 222,12 222,89.5 202,89.5" id="e_U1_1_C4_2" class="edge" />
    <polyline points="102,179.5 62,179.5 62,212 222,212 222,134.5 202,134.5" id="e_U1_1_C5_2" class="edge" />
    <polyline points="132,134.5 172,134.5" id="e_U1_5_C5_1" class="edge" />
    <polyline points="22,149.5 12,149.5 12,277 212,277 212,254.5 202,254.5" id="e_R7_1_D6_2" class="edge" />
    <polyline points="102,149.5 52,149.5" id="e_U1_3_R7_2" class="edge" />
    <rect id="R7" class="node" x="27" y="137" width="20" height="25" />
    <g transform="translate(27,137)">
      <rect id="R7_1" class="node" x="-5" y="10" width="5" height="5" />
      <g id="R7_1" class="port" transform="translate(-5,10)">
        <text id="lbl_R7_1" class="label" x="6" y="2.5" width="0" height="0">
          ~
        </text>
      </g>
      <rect id="R7_2" class="node" x="20" y="10" width="5" height="5" />
      <g id="R7_2" class="port" transform="translate(20,10)">
        <text id="lbl_R7_2" class="label" x="-1" y="2.5" width="0" height="0">
          ~
        </text>
      </g>
    </g>
    <rect id="C5" class="node" x="177" y="122" width="20" height="25" />
    <g transform="translate(177,122)">
      <rect id="C5_1" class="node" x="-5" y="10" width="5" height="5" />
      <g id="C5_1" class="port" transform="translate(-5,10)">
        <text id="lbl_C5_1" class="label" x="6" y="2.5" width="0" height="0">
          ~
        </text>
      </g>
      <rect id="C5_2" class="node" x="20" y="10" width="5" height="5" />
      <g id="C5_2" class="port" transform="translate(20,10)">
        <text id="lbl_C5_2" class="label" x="-1" y="2.5" width="0" height="0">
          ~
        </text>
      </g>
    </g>
    <rect id="C4" class="node" x="177" y="77" width="20" height="25" />
    <g transform="translate(177,77)">
      <rect id="C4_1" class="node" x="-5" y="10" width="5" height="5" />
      <g id="C4_1" class="port" transform="translate(-5,10)">
        <text id="lbl_C4_1" class="label" x="6" y="2.5" width="0" height="0">
          ~
        </text>
      </g>
      <rect id="C4_2" class="node" x="20" y="10" width="5" height="5" />
      <g id="C4_2" class="port" transform="translate(20,10)">
        <text id="lbl_C4_2" class="label" x="-1" y="2.5" width="0" height="0">
          ~
        </text>
      </g>
    </g>
    <rect id="R3" class="node" x="177" y="167" width="20" height="25" />
    <g transform="translate(177,167)">
      <rect id="R3_1" class="node" x="-5" y="10" width="5" height="5" />
      <g id="R3_1" class="port" transform="translate(-5,10)">
        <text id="lbl_R3_1" class="label" x="6" y="2.5" width="0" height="0">
          ~
        </text>
      </g>
      <rect id="R3_2" class="node" x="20" y="10" width="5" height="5" />
      <g id="R3_2" class="port" transform="translate(20,10)">
        <text id="lbl_R3_2" class="label" x="-1" y="2.5" width="0" height="0">
          ~
        </text>
      </g>
    </g>
    <rect id="R2" class="node" x="177" y="32" width="20" height="25" />
    <g transform="translate(177,32)">
      <rect id="R2_1" class="node" x="-5" y="10" width="5" height="5" />
      <g id="R2_1" class="port" transform="translate(-5,10)">
        <text id="lbl_R2_1" class="label" x="6" y="2.5" width="0" height="0">
          ~
        </text>
      </g>
      <rect id="R2_2" class="node" x="20" y="10" width="5" height="5" />
      <g id="R2_2" class="port" transform="translate(20,10)">
        <text id="lbl_R2_2" class="label" x="-1" y="2.5" width="0" height="0">
          ~
        </text>
      </g>
    </g>
    <rect id="U1" class="node" x="107" y="122" width="20" height="70" />
    <g transform="translate(107,122)">
      <rect id="U1_1" class="node" x="-5" y="55" width="5" height="5" />
      <g id="U1_1" class="port" transform="translate(-5,55)">
        <text id="lbl_U1_1" class="label" x="6" y="2.5" width="0" height="0">
          GND
        </text>
      </g>
      <rect id="U1_2" class="node" x="-5" y="40" width="5" height="5" />
      <g id="U1_2" class="port" transform="translate(-5,40)">
        <text id="lbl_U1_2" class="label" x="6" y="2.5" width="0" height="0">
          TR
        </text>
      </g>
      <rect id="U1_3" class="node" x="-5" y="25" width="5" height="5" />
      <g id="U1_3" class="port" transform="translate(-5,25)">
        <text id="lbl_U1_3" class="label" x="6" y="2.5" width="0" height="0">
          Q
        </text>
      </g>
      <rect id="U1_4" class="node" x="-5" y="10" width="5" height="5" />
      <g id="U1_4" class="port" transform="translate(-5,10)">
        <text id="lbl_U1_4" class="label" x="6" y="2.5" width="0" height="0">
          R
        </text>
      </g>
      <rect id="U1_5" class="node" x="20" y="10" width="5" height="5" />
      <g id="U1_5" class="port" transform="translate(20,10)">
        <text id="lbl_U1_5" class="label" x="-1" y="2.5" width="0" height="0">
          CV
        </text>
      </g>
      <rect id="U1_6" class="node" x="20" y="25" width="5" height="5" />
      <g id="U1_6" class="port" transform="translate(20,25)">
        <text id="lbl_U1_6" class="label" x="-1" y="2.5" width="0" height="0">
          THR
        </text>
      </g>
      <rect id="U1_7" class="node" x="20" y="40" width="5" height="5" />
      <g id="U1_7" class="port" transform="translate(20,40)">
        <text id="lbl_U1_7" class="label" x="-1" y="2.5" width="0" height="0">
          DIS
        </text>
      </g>
      <rect id="U1_8" class="node" x="20" y="55" width="5" height="5" />
      <g id="U1_8" class="port" transform="translate(20,55)">
        <text id="lbl_U1_8" class="label" x="-1" y="2.5" width="0" height="0">
          VCC
        </text>
      </g>
    </g>
    <rect id="D6" class="node" x="177" y="242" width="20" height="25" />
    <g transform="translate(177,242)">
      <rect id="D6_1" class="node" x="-5" y="10" width="5" height="5" />
      <g id="D6_1" class="port" transform="translate(-5,10)">
        <text id="lbl_D6_1" class="label" x="6" y="2.5" width="0" height="0">
          K
        </text>
      </g>
      <rect id="D6_2" class="node" x="20" y="10" width="5" height="5" />
      <g id="D6_2" class="port" transform="translate(20,10)">
        <text id="lbl_D6_2" class="label" x="-1" y="2.5" width="0" height="0">
          A
        </text>
      </g>
    </g>
  </g>
</svg>