<svg version="1.1" xmlns="http://www.w3.org/2000/svg" width="264" height="329">
  <defs>
    <style type="text/css">
      <![CDATA[
        rect {
          opacity: 0.8;
          fill: #6094CC;
          stroke-width: 1;
          stroke: #222222;
        }
        rect.port {
          opacity: 1;
          fill: #326CB2;
        }
        text {
          font-size: 10px;
          font-family: sans-serif;
          /* in elk's coordinates "hanging" would be the correct value" */
          dominant-baseline: hanging;
          text-align: left;
        }
        g.port > text {
          font-size: 8px;
        }
        polyline {
          fill: none;
          stroke: black;
          stroke-width: 1;
        }
        path {
          fill: none;
          stroke: black;
          stroke-width: 1;
        }
      ]]>
    </style>
    <marker id="arrow" markerWidth="10" markerHeight="8" refX="10" refY="4" orient="auto">
      <path d="M0,7 L10,4 L0,1 L0,7" style="fill: #000000;" />
    </marker>
  </defs>
  <g>
    <polyline points="92,217 112,217 112,139.5 42,139.5 42,172 62,172" id="e_U1_8_U1_4" class="edge" />
    <polyline points="92,217 142,217 142,142 152,142" id="e_U1_8_PinHead8_1" class="edge" />
    <polyline points="92,217 192,217 192,194.5 182,194.5" id="e_U1_8_R2_2" class="edge" />
    <polyline points="62,217 12,217 12,249.5 122,249.5 122,227 202,227 202,149.5 182,149.5" id="e_U1_1_PinHead8_3" class="edge" />
    <polyline points="62,217 12,217 12,22 192,22 192,44.5 182,44.5" id="e_U1_1_C5_2" class="edge" />
    <polyline points="62,217 12,217 12,317 192,317 192,294.5 182,294.5" id="e_U1_1_C4_2" class="edge" />
    <polyline points="62,217 12,217 12,249.5 152,249.5" id="e_U1_1_D6_1" class="edge" />
    <polyline points="62,202 52,202 52,149.5 102,149.5 102,187 92,187" id="e_U1_2_U1_6" class="edge" />
    <polyline points="62,202 32,202 32,67 192,67 192,89.5 182,89.5" id="e_U1_2_R3_2" class="edge" />
    <polyline points="62,202 32,202 32,294.5 152,294.5" id="e_U1_2_C4_1" class="edge" />
    <polyline points="92,202 132,202 132,194.5 152,194.5" id="e_U1_7_R2_1" class="edge" />
    <polyline points="92,202 132,202 132,89.5 152,89.5" id="e_U1_7_R3_1" class="edge" />
    <polyline points="92,172 122,172 122,44.5 152,44.5" id="e_U1_5_C5_1" class="edge" />
    <polyline points="212,249.5 182,249.5" id="e_R7_1_D6_2" class="edge" />
    <polyline points="62,187 22,187 22,12 202,12 202,134.5 182,134.5" id="e_U1_3_PinHead8_2" class="edge" />
    <polyline points="62,187 22,187 22,12 252,12 252,249.5 242,249.5" id="e_U1_3_R7_2" class="edge" />
    <rect id="PinHead8" class="node" x="157" y="122" width="20" height="40" />
    <g transform="translate(157,122)">
      <rect id="PinHead8_1" class="node" x="-5" y="17.5" width="5" height="5" />
      <g id="PinHead8_1" class="port" transform="translate(-5,17.5)">
        <text id="lbl_PinHead8_1" class="label" x="6" y="2.5" width="0" height="0">
          P1
        </text>
      </g>
      <rect id="PinHead8_2" class="node" x="20" y="10" width="5" height="5" />
      <g id="PinHead8_2" class="port" transform="translate(20,10)">
        <text id="lbl_PinHead8_2" class="label" x="-1" y="2.5" width="0" height="0">
          P2
        </text>
      </g>
      <rect id="PinHead8_3" class="node" x="20" y="25" width="5" height="5" />
      <g id="PinHead8_3" class="port" transform="translate(20,25)">
        <text id="lbl_PinHead8_3" class="label" x="-1" y="2.5" width="0" height="0">
          P3
        </text>
      </g>
    </g>
    <rect id="R7" class="node" x="217" y="237" width="20" height="25" />
    <g transform="translate(217,237)">
      <rect id="R7_1" class="node" x="-5" y="10" width="5" height="5" />
      <g id="R7_1" class="port" transform="translate(-5,10)">
        <text id="lbl_R7_1" class="label" x="6" y="2.5" width="0" height="0">
          ~
        </text>
      </g>
      <rect id="R7_2" class="node" x="20" y="10" width="5" height="5" />
      <g id="R7_2" class="port" transform="translate(20,10)">
        <text id="lbl_R7_2" class="label" x="-1" y="2.5" width="0" height="0">
          ~
        </text>
      </g>
    </g>
    <rect id="C5" class="node" x="157" y="32" width="20" height="25" />
    <g transform="translate(157,32)">
      <rect id="C5_1" class="node" x="-5" y="10" width="5" height="5" />
      <g id="C5_1" class="port" transform="translate(-5,10)">
        <text id="lbl_C5_1" class="label" x="6" y="2.5" width="0" height="0">
          ~
        </text>
      </g>
      <rect id="C5_2" class="node" x="20" y="10" width="5" height="5" />
      <g id="C5_2" class="port" transform="translate(20,10)">
        <text id="lbl_C5_2" class="label" x="-1" y="2.5" width="0" height="0">
          ~
        </text>
      </g>
    </g>
    <rect id="C4" class="node" x="157" y="282" width="20" height="25" />
    <g transform="translate(157,282)">
      <rect id="C4_1" class="node" x="-5" y="10" width="5" height="5" />
      <g id="C4_1" class="port" transform="translate(-5,10)">
        <text id="lbl_C4_1" class="label" x="6" y="2.5" width="0" height="0">
          ~
        </text>
      </g>
      <rect id="C4_2" class="node" x="20" y="10" width="5" height="5" />
      <g id="C4_2" class="port" transform="translate(20,10)">
        <text id="lbl_C4_2" class="label" x="-1" y="2.5" width="0" height="0">
          ~
        </text>
      </g>
    </g>
    <rect id="R3" class="node" x="157" y="77" width="20" height="25" />
    <g transform="translate(157,77)">
      <rect id="R3_1" class="node" x="-5" y="10" width="5" height="5" />
      <g id="R3_1" class="port" transform="translate(-5,10)">
        <text id="lbl_R3_1" class="label" x="6" y="2.5" width="0" height="0">
          ~
        </text>
      </g>
      <rect id="R3_2" class="node" x="20" y="10" width="5" height="5" />
      <g id="R3_2" class="port" transform="translate(20,10)">
        <text id="lbl_R3_2" class="label" x="-1" y="2.5" width="0" height="0">
          ~
        </text>
      </g>
    </g>
    <rect id="R2" class="node" x="157" y="182" width="20" height="25" />
    <g transform="translate(157,182)">
      <rect id="R2_1" class="node" x="-5" y="10" width="5" height="5" />
      <g id="R2_1" class="port" transform="translate(-5,10)">
        <text id="lbl_R2_1" class="label" x="6" y="2.5" width="0" height="0">
          ~
        </text>
      </g>
      <rect id="R2_2" class="node" x="20" y="10" width="5" height="5" />
      <g id="R2_2" class="port" transform="translate(20,10)">
        <text id="lbl_R2_2" class="label" x="-1" y="2.5" width="0" height="0">
          ~
        </text>
      </g>
    </g>
    <rect id="U1" class="node" x="67" y="159.5" width="20" height="70" />
    <g transform="translate(67,159.5)">
      <rect id="U1_1" class="node" x="-5" y="55" width="5" height="5" />
      <g id="U1_1" class="port" transform="translate(-5,55)">
        <text id="lbl_U1_1" class="label" x="6" y="2.5" width="0" height="0">
          GND
        </text>
      </g>
      <rect id="U1_2" class="node" x="-5" y="40" width="5" height="5" />
      <g id="U1_2" class="port" transform="translate(-5,40)">
        <text id="lbl_U1_2" class="label" x="6" y="2.5" width="0" height="0">
          TR
        </text>
      </g>
      <rect id="U1_3" class="node" x="-5" y="25" width="5" height="5" />
      <g id="U1_3" class="port" transform="translate(-5,25)">
        <text id="lbl_U1_3" class="label" x="6" y="2.5" width="0" height="0">
          Q
        </text>
      </g>
      <rect id="U1_4" class="node" x="-5" y="10" width="5" height="5" />
      <g id="U1_4" class="port" transform="translate(-5,10)">
        <text id="lbl_U1_4" class="label" x="6" y="2.5" width="0" height="0">
          R
        </text>
      </g>
      <rect id="U1_5" class="node" x="20" y="10" width="5" height="5" />
      <g id="U1_5" class="port" transform="translate(20,10)">
        <text id="lbl_U1_5" class="label" x="-1" y="2.5" width="0" height="0">
          CV
        </text>
      </g>
      <rect id="U1_6" class="node" x="20" y="25" width="5" height="5" />
      <g id="U1_6" class="port" transform="translate(20,25)">
        <text id="lbl_U1_6" class="label" x="-1" y="2.5" width="0" height="0">
          THR
        </text>
      </g>
      <rect id="U1_7" class="node" x="20" y="40" width="5" height="5" />
      <g id="U1_7" class="port" transform="translate(20,40)">
        <text id="lbl_U1_7" class="label" x="-1" y="2.5" width="0" height="0">
          DIS
        </text>
      </g>
      <rect id="U1_8" class="node" x="20" y="55" width="5" height="5" />
      <g id="U1_8" class="port" transform="translate(20,55)">
        <text id="lbl_U1_8" class="label" x="-1" y="2.5" width="0" height="0">
          VCC
        </text>
      </g>
    </g>
    <rect id="D6" class="node" x="157" y="237" width="20" height="25" />
    <g transform="translate(157,237)">
      <rect id="D6_1" class="node" x="-5" y="10" width="5" height="5" />
      <g id="D6_1" class="port" transform="translate(-5,10)">
        <text id="lbl_D6_1" class="label" x="6" y="2.5" width="0" height="0">
          K
        </text>
      </g>
      <rect id="D6_2" class="node" x="20" y="10" width="5" height="5" />
      <g id="D6_2" class="port" transform="translate(20,10)">
        <text id="lbl_D6_2" class="label" x="-1" y="2.5" width="0" height="0">
          A
        </text>
      </g>
    </g>
  </g>
</svg>