<svg version="1.1" xmlns="http://www.w3.org/2000/svg" width="606.65" height="774" xmlns:xlink="http://www.w3.org/1999/xlink" xmlns:svgjs="http://svgjs.dev/svgjs">
  <defs>
    <style type="text/css">
      <![CDATA[
        rect {
          stroke-width: 1;
          shape-rendering: crispEdges;
        }
        rect.port {
          opacity: 1;
          fill: #326CB2;
        }
        text {
          font-size: 10px;
          font-family: sans-serif;
          text-align: left;
        }
        g.port > text {
          font-size: 8px;
        }
        polyline {
          fill: none;
          stroke: black;
          stroke-width: 1;
          shape-rendering: crispEdges;
        }
        path {
          fill: none;
          stroke: black;
          stroke-width: 1;
          shape-rendering: crispEdges;
        }
        line {
          fill: none;
          shape-rendering: crispEdges;
        }
      ]]>
    </style>
    <marker id="arrow" markerWidth="10" markerHeight="8" refX="10" refY="4" orient="auto">
      <path d="M0,7 L10,4 L0,1 L0,7" style="fill: #000000;" />
    </marker>
  </defs>
  <g>
    <polyline points="251,105 251,85 151,85 151,170 171,170" id="e_U3_8_U3_4_VCC" class="edge" />
    <polyline points="251,105 251,52 411,52 411,164 455,164" id="e_U3_8_PinHead11_1_VCC" class="edge" />
    <g>
      <circle cx="411.15" cy="52" r="3" class="junction" />
      <circle cx="411.15" cy="164.5" r="3" class="junction" />
    </g>
    <polyline points="251,105 251,52 411,52 411,302 463,302 463,282" id="e_U3_8_R4_2_VCC" class="edge" />
    <polyline points="251,105 251,52 463,52 463,32" id="e_U3_8_#PWR1_1_VCC" class="edge" />
    <polyline points="455,114 431,114 431,72 515,72" id="e_PinHead11_3_D9_1_GND" class="edge" />
    <polyline points="455,114 431,114 431,72 495,72 495,102 544,102 544,122" id="e_PinHead11_3_#PWR2_1_GND" class="edge" />
    <g>
      <circle cx="495.15" cy="72" r="3" class="junction" />
    </g>
    <polyline points="171,202 151,202 151,255 351,255 351,170 331,170" id="e_U3_2_U3_6_Net_2" class="edge" />
    <polyline points="171,202 131,202 131,532 463,532 463,512" id="e_U3_2_R5_2_Net_2" class="edge" />
    <g>
      <circle cx="131.15" cy="532" r="3" class="junction" />
    </g>
    <polyline points="171,202 131,202 131,667 463,667 463,687" id="e_U3_2_C6_1_Net_2" class="edge" />
    <polyline points="331,202 371,202 371,207 463,207 463,227" id="e_U3_7_R4_1_Net_3" class="edge" />
    <g>
      <circle cx="371.15" cy="207" r="3" class="junction" />
    </g>
    <polyline points="331,202 371,202 371,437 463,437 463,457" id="e_U3_7_R5_1_Net_3" class="edge" />
    <polyline points="251,235 251,647 371,647 371,762 463,762 463,742" id="e_U3_1_C6_2_Net_4" class="edge" />
    <g>
      <circle cx="371.15" cy="647" r="3" class="junction" />
    </g>
    <polyline points="251,235 251,647 463,647 463,627" id="e_U3_1_C7_2_Net_4" class="edge" />
    <polyline points="171,139 111,139 111,552 463,552 463,572" id="e_U3_5_C7_1_Net_5" class="edge" />
    <polyline points="463,342 463,322 594,322 594,72 574,72" id="e_R10_1_D9_2_Net_6" class="edge" />
    <polyline points="331,139 455,139" id="e_U3_3_PinHead11_2_Net_7" class="edge" />
    <polyline points="331,139 391,139 391,417 463,417 463,397" id="e_U3_3_R10_2_Net_7" class="edge" />
    <g>
      <circle cx="391.15" cy="139.5" r="3" class="junction" />
    </g>
    <rect id="PinHead11" class="node" x="460.8166666666667" y="92" width="0" height="95" />
    <g transform="translate(460.8166666666667,92)">
      <rect id="PinHead11_1" class="node" x="-5" y="70" width="5" height="5" />
      <g id="PinHead11_1" class="port" transform="translate(-5,70)">
        <text id="lbl_PinHead11_1" class="label" dominant-baseline="middle" text-anchor="start" x="7" y="2.5" width="0" height="0">
          P1
        </text>
      </g>
      <rect id="PinHead11_2" class="node" x="-5" y="45" width="5" height="5" />
      <g id="PinHead11_2" class="port" transform="translate(-5,45)">
        <text id="lbl_PinHead11_2" class="label" dominant-baseline="middle" text-anchor="start" x="7" y="2.5" width="0" height="0">
          P2
        </text>
      </g>
      <rect id="PinHead11_3" class="node" x="-5" y="20" width="5" height="5" />
      <g id="PinHead11_3" class="port" transform="translate(-5,20)">
        <text id="lbl_PinHead11_3" class="label" dominant-baseline="middle" text-anchor="start" x="7" y="2.5" width="0" height="0">
          P3
        </text>
      </g>
    </g>
<g transform="matrix(1,0,0,1,463.15,369.5)"><polyline points="0,-13.5 0,-15" fill="none" stroke-width="1" stroke="black"></polyline><polyline points="0,13.5 0,15" fill="none" stroke-width="1" stroke="black"></polyline><polyline points="0,-4.5 6,-6.75 0,-9 -6,-11.25 0,-13.5" fill="none" stroke-width="1" stroke="black"></polyline><polyline points="0,4.5 6,2.25 0,0 -6,-2.25 0,-4.5" fill="none" stroke-width="1" stroke="black"></polyline><polyline points="0,13.5 6,11.25 0,9 -6,6.75 0,4.5" fill="none" stroke-width="1" stroke="black"></polyline><line x1="0" y1="22.5" x2="0" y2="18.75" stroke-width="1" stroke="black"></line><line x1="0" y1="18.75" x2="0" y2="15" stroke-width="1" stroke="black"></line><line x1="0" y1="-22.5" x2="0" y2="-18.75" stroke-width="1" stroke="black"></line><line x1="0" y1="-18.75" x2="0" y2="-15" stroke-width="1" stroke="black"></line><text text-anchor="end" transform="matrix(1,0,0,1,-6,-32.5)" svgjs:data="{&quot;leading&quot;:&quot;1.3&quot;}"><tspan dy="0" x="0" svgjs:data="{&quot;newLined&quot;:true}">R10</tspan></text></g>
    <g transform="translate(457.15,347)">
      <rect id="R10_1" class="node" x="3.5" y="-5" width="5" height="5" />
      <g id="R10_1" class="port" transform="translate(3.5,-5)">

      </g>
      <rect id="R10_2" class="node" x="3.5" y="45" width="5" height="5" />
      <g id="R10_2" class="port" transform="translate(3.5,45)">

      </g>
    </g>
<g transform="matrix(1,0,0,1,44.075,47)"><circle r="16.65" cx="7.499999999999998" cy="0" fill="none" stroke-width="1" stroke="black"></circle><polyline points="3.75,3.75 15,15" fill="none" stroke-width="1" stroke="black"></polyline><polyline points="3.75,-3.75 15,-15 15,-15" fill="none" stroke-width="1" stroke="black"></polyline><polyline points="3.75,11.25 3.75,-11.25 3.75,-11.25" fill="none" stroke-width="1" stroke="black"></polyline><polyline points="13.5,-10.5 10.5,-13.5 7.5,-7.5 13.5,-10.5 13.5,-10.5" fill="none" stroke-width="1" stroke="black"></polyline><line x1="15" y1="-30" x2="15" y2="-22.5" stroke-width="1" stroke="black"></line><line x1="15" y1="-22.5" x2="15" y2="-15" stroke-width="1" stroke="black"></line><line x1="-30" y1="0" x2="-13.125" y2="0" stroke-width="1" stroke="black"></line><line x1="-13.125" y1="0" x2="3.75" y2="0" stroke-width="1" stroke="black"></line><line x1="15" y1="30" x2="15" y2="22.5" stroke-width="1" stroke="black"></line><line x1="15" y1="22.5" x2="15" y2="15" stroke-width="1" stroke="black"></line><text text-anchor="end" transform="matrix(1,0,0,1,-27.075,-40)" svgjs:data="{&quot;leading&quot;:&quot;1.3&quot;}"><tspan dy="0" x="0" svgjs:data="{&quot;newLined&quot;:true}">Q8</tspan></text></g>
    <g transform="translate(17,17)">
      <rect id="Q8_1" class="node" x="24.575" y="60" width="5" height="5" />
      <g id="Q8_1" class="port" transform="translate(24.575,60)">
        <text id="lbl_Q8_1" class="label" dominant-baseline="bottom" text-anchor="middle" x="2.5" y="-2" width="0" height="0">
          E
        </text>
      </g>
      <rect id="Q8_2" class="node" x="-5" y="27.5" width="5" height="5" />
      <g id="Q8_2" class="port" transform="translate(-5,27.5)">
        <text id="lbl_Q8_2" class="label" dominant-baseline="middle" text-anchor="start" x="7" y="2.5" width="0" height="0">
          B
        </text>
      </g>
      <rect id="Q8_3" class="node" x="24.575" y="-5" width="5" height="5" />
      <g id="Q8_3" class="port" transform="translate(24.575,-5)">
        <text id="lbl_Q8_3" class="label" dominant-baseline="hanging" text-anchor="middle" x="2.5" y="7" width="0" height="0">
          C
        </text>
      </g>
    </g>
<g transform="matrix(1,0,0,1,463.15,599.5)"><polyline points="-12,-4.5 12,-4.5" fill="none" stroke-width="1" stroke="black"></polyline><polyline points="-12,4.5 12,4.5" fill="none" stroke-width="1" stroke="black"></polyline><line x1="0" y1="22.5" x2="0" y2="14.25" stroke-width="1" stroke="black"></line><line x1="0" y1="14.25" x2="0" y2="6" stroke-width="1" stroke="black"></line><line x1="0" y1="-22.5" x2="0" y2="-14.25" stroke-width="1" stroke="black"></line><line x1="0" y1="-14.25" x2="0" y2="-6" stroke-width="1" stroke="black"></line><text text-anchor="end" transform="matrix(1,0,0,1,-12,-32.5)" svgjs:data="{&quot;leading&quot;:&quot;1.3&quot;}"><tspan dy="0" x="0" svgjs:data="{&quot;newLined&quot;:true}">C7</tspan></text><text text-anchor="start" transform="matrix(1,0,0,1,12,-32.5)" svgjs:data="{&quot;leading&quot;:&quot;1.3&quot;}"><tspan dy="0" x="0" svgjs:data="{&quot;newLined&quot;:true}">10nF</tspan></text></g>
    <g transform="translate(451.15,577)">
      <rect id="C7_1" class="node" x="9.5" y="-5" width="5" height="5" />
      <g id="C7_1" class="port" transform="translate(9.5,-5)">

      </g>
      <rect id="C7_2" class="node" x="9.5" y="45" width="5" height="5" />
      <g id="C7_2" class="port" transform="translate(9.5,45)">

      </g>
    </g>
<g transform="matrix(1,0,0,1,463.15,714.5)"><polyline points="-12,-4.5 12,-4.5" fill="none" stroke-width="1" stroke="black"></polyline><polyline points="-12,4.5 12,4.5" fill="none" stroke-width="1" stroke="black"></polyline><line x1="0" y1="22.5" x2="0" y2="14.25" stroke-width="1" stroke="black"></line><line x1="0" y1="14.25" x2="0" y2="6" stroke-width="1" stroke="black"></line><line x1="0" y1="-22.5" x2="0" y2="-14.25" stroke-width="1" stroke="black"></line><line x1="0" y1="-14.25" x2="0" y2="-6" stroke-width="1" stroke="black"></line><text text-anchor="end" transform="matrix(1,0,0,1,-12,-32.5)" svgjs:data="{&quot;leading&quot;:&quot;1.3&quot;}"><tspan dy="0" x="0" svgjs:data="{&quot;newLined&quot;:true}">C6</tspan></text><text text-anchor="start" transform="matrix(1,0,0,1,12,-32.5)" svgjs:data="{&quot;leading&quot;:&quot;1.3&quot;}"><tspan dy="0" x="0" svgjs:data="{&quot;newLined&quot;:true}">1uF</tspan></text></g>
    <g transform="translate(451.15,692)">
      <rect id="C6_1" class="node" x="9.5" y="-5" width="5" height="5" />
      <g id="C6_1" class="port" transform="translate(9.5,-5)">

      </g>
      <rect id="C6_2" class="node" x="9.5" y="45" width="5" height="5" />
      <g id="C6_2" class="port" transform="translate(9.5,45)">

      </g>
    </g>
<g transform="matrix(1,0,0,1,463.15,484.5)"><polyline points="0,-13.5 0,-15" fill="none" stroke-width="1" stroke="black"></polyline><polyline points="0,13.5 0,15" fill="none" stroke-width="1" stroke="black"></polyline><polyline points="0,-4.5 6,-6.75 0,-9 -6,-11.25 0,-13.5" fill="none" stroke-width="1" stroke="black"></polyline><polyline points="0,4.5 6,2.25 0,0 -6,-2.25 0,-4.5" fill="none" stroke-width="1" stroke="black"></polyline><polyline points="0,13.5 6,11.25 0,9 -6,6.75 0,4.5" fill="none" stroke-width="1" stroke="black"></polyline><line x1="0" y1="22.5" x2="0" y2="18.75" stroke-width="1" stroke="black"></line><line x1="0" y1="18.75" x2="0" y2="15" stroke-width="1" stroke="black"></line><line x1="0" y1="-22.5" x2="0" y2="-18.75" stroke-width="1" stroke="black"></line><line x1="0" y1="-18.75" x2="0" y2="-15" stroke-width="1" stroke="black"></line><text text-anchor="end" transform="matrix(1,0,0,1,-6,-32.5)" svgjs:data="{&quot;leading&quot;:&quot;1.3&quot;}"><tspan dy="0" x="0" svgjs:data="{&quot;newLined&quot;:true}">R5</tspan></text><text text-anchor="start" transform="matrix(1,0,0,1,6,-32.5)" svgjs:data="{&quot;leading&quot;:&quot;1.3&quot;}"><tspan dy="0" x="0" svgjs:data="{&quot;newLined&quot;:true}">715k</tspan></text></g>
    <g transform="translate(457.15,462)">
      <rect id="R5_1" class="node" x="3.5" y="-5" width="5" height="5" />
      <g id="R5_1" class="port" transform="translate(3.5,-5)">

      </g>
      <rect id="R5_2" class="node" x="3.5" y="45" width="5" height="5" />
      <g id="R5_2" class="port" transform="translate(3.5,45)">

      </g>
    </g>
<g transform="matrix(1,0,0,1,463.15,254.5)"><polyline points="0,-13.5 0,-15" fill="none" stroke-width="1" stroke="black"></polyline><polyline points="0,13.5 0,15" fill="none" stroke-width="1" stroke="black"></polyline><polyline points="0,-4.5 6,-6.75 0,-9 -6,-11.25 0,-13.5" fill="none" stroke-width="1" stroke="black"></polyline><polyline points="0,4.5 6,2.25 0,0 -6,-2.25 0,-4.5" fill="none" stroke-width="1" stroke="black"></polyline><polyline points="0,13.5 6,11.25 0,9 -6,6.75 0,4.5" fill="none" stroke-width="1" stroke="black"></polyline><line x1="0" y1="22.5" x2="0" y2="18.75" stroke-width="1" stroke="black"></line><line x1="0" y1="18.75" x2="0" y2="15" stroke-width="1" stroke="black"></line><line x1="0" y1="-22.5" x2="0" y2="-18.75" stroke-width="1" stroke="black"></line><line x1="0" y1="-18.75" x2="0" y2="-15" stroke-width="1" stroke="black"></line><text text-anchor="end" transform="matrix(1,0,0,1,-6,-32.5)" svgjs:data="{&quot;leading&quot;:&quot;1.3&quot;}"><tspan dy="0" x="0" svgjs:data="{&quot;newLined&quot;:true}">R4</tspan></text><text text-anchor="start" transform="matrix(1,0,0,1,6,-32.5)" svgjs:data="{&quot;leading&quot;:&quot;1.3&quot;}"><tspan dy="0" x="0" svgjs:data="{&quot;newLined&quot;:true}">10k</tspan></text></g>
    <g transform="translate(457.15,232)">
      <rect id="R4_1" class="node" x="3.5" y="-5" width="5" height="5" />
      <g id="R4_1" class="port" transform="translate(3.5,-5)">

      </g>
      <rect id="R4_2" class="node" x="3.5" y="45" width="5" height="5" />
      <g id="R4_2" class="port" transform="translate(3.5,45)">

      </g>
    </g>
<g transform="matrix(1,0,0,1,251.15,170.75)"><rect width="105" height="90" x="-52.5" y="-45" fill="none" stroke-width="1" stroke="black"></rect><rect width="105" height="90" x="-52.5" y="-45" fill="none" stroke-width="1" stroke="black"></rect><line x1="0" y1="-60" x2="0" y2="-52.5" stroke-width="1" stroke="black"></line><line x1="0" y1="-52.5" x2="0" y2="-45" stroke-width="1" stroke="black"></line><line x1="0" y1="60" x2="0" y2="52.5" stroke-width="1" stroke="black"></line><line x1="0" y1="52.5" x2="0" y2="45" stroke-width="1" stroke="black"></line><line x1="-75" y1="30" x2="-63.75" y2="30" stroke-width="1" stroke="black"></line><line x1="-63.75" y1="30" x2="-52.5" y2="30" stroke-width="1" stroke="black"></line><line x1="75" y1="30" x2="63.75" y2="30" stroke-width="1" stroke="black"></line><line x1="63.75" y1="30" x2="52.5" y2="30" stroke-width="1" stroke="black"></line><line x1="-75" y1="-30" x2="-63.75" y2="-30" stroke-width="1" stroke="black"></line><line x1="-63.75" y1="-30" x2="-52.5" y2="-30" stroke-width="1" stroke="black"></line><line x1="-75" y1="0" x2="-63.75" y2="0" stroke-width="1" stroke="black"></line><line x1="-63.75" y1="0" x2="-52.5" y2="0" stroke-width="1" stroke="black"></line><line x1="75" y1="-30" x2="63.75" y2="-30" stroke-width="1" stroke="black"></line><line x1="63.75" y1="-30" x2="52.5" y2="-30" stroke-width="1" stroke="black"></line><line x1="75" y1="0" x2="63.75" y2="0" stroke-width="1" stroke="black"></line><line x1="63.75" y1="0" x2="52.5" y2="0" stroke-width="1" stroke="black"></line><text text-anchor="end" transform="matrix(1,0,0,1,-75,-70)" svgjs:data="{&quot;leading&quot;:&quot;1.3&quot;}"><tspan dy="0" x="0" svgjs:data="{&quot;newLined&quot;:true}">U3</tspan></text></g>
    <g transform="translate(176.15,110.75)">
      <rect id="U3_1" class="node" x="72.5" y="120" width="5" height="5" />
      <g id="U3_1" class="port" transform="translate(72.5,120)">
        <text id="lbl_U3_1" class="label" dominant-baseline="bottom" text-anchor="middle" x="2.5" y="-2" width="0" height="0">
          GND
        </text>
      </g>
      <rect id="U3_2" class="node" x="-5" y="88.75" width="5" height="5" />
      <g id="U3_2" class="port" transform="translate(-5,88.75)">
        <text id="lbl_U3_2" class="label" dominant-baseline="middle" text-anchor="start" x="7" y="2.5" width="0" height="0">
          TR
        </text>
      </g>
      <rect id="U3_3" class="node" x="150" y="26.25" width="5" height="5" />
      <g id="U3_3" class="port" transform="translate(150,26.25)">
        <text id="lbl_U3_3" class="label" dominant-baseline="middle" text-anchor="end" x="-2" y="2.5" width="0" height="0">
          Q
        </text>
      </g>
      <rect id="U3_4" class="node" x="-5" y="57.5" width="5" height="5" />
      <g id="U3_4" class="port" transform="translate(-5,57.5)">
        <text id="lbl_U3_4" class="label" dominant-baseline="middle" text-anchor="start" x="7" y="2.5" width="0" height="0">
          R
        </text>
      </g>
      <rect id="U3_5" class="node" x="-5" y="26.25" width="5" height="5" />
      <g id="U3_5" class="port" transform="translate(-5,26.25)">
        <text id="lbl_U3_5" class="label" dominant-baseline="middle" text-anchor="start" x="7" y="2.5" width="0" height="0">
          CV
        </text>
      </g>
      <rect id="U3_6" class="node" x="150" y="57.5" width="5" height="5" />
      <g id="U3_6" class="port" transform="translate(150,57.5)">
        <text id="lbl_U3_6" class="label" dominant-baseline="middle" text-anchor="end" x="-2" y="2.5" width="0" height="0">
          THR
        </text>
      </g>
      <rect id="U3_7" class="node" x="150" y="88.75" width="5" height="5" />
      <g id="U3_7" class="port" transform="translate(150,88.75)">
        <text id="lbl_U3_7" class="label" dominant-baseline="middle" text-anchor="end" x="-2" y="2.5" width="0" height="0">
          DIS
        </text>
      </g>
      <rect id="U3_8" class="node" x="72.5" y="-5" width="5" height="5" />
      <g id="U3_8" class="port" transform="translate(72.5,-5)">
        <text id="lbl_U3_8" class="label" dominant-baseline="hanging" text-anchor="middle" x="2.5" y="7" width="0" height="0">
          VCC
        </text>
      </g>
    </g>
<g transform="matrix(1,0,0,1,544.9,135)"><polyline points="0,0 0,-7.5 7.5,-7.5 0,-15 -7.5,-7.5 0,-7.5" fill="none" stroke-width="1" stroke="black"></polyline><line x1="0" y1="0" x2="0" y2="0" stroke-width="1" stroke="black"></line><line x1="0" y1="0" x2="0" y2="0" stroke-width="1" stroke="black"></line><text text-anchor="end" transform="matrix(1,0,0,1,-7.5,-17.5)" svgjs:data="{&quot;leading&quot;:&quot;1.3&quot;}"><tspan dy="0" x="0" svgjs:data="{&quot;newLined&quot;:true}">#PWR2</tspan></text></g>
    <g transform="translate(537.4,127.5)">
      <rect id="#PWR2_1" class="node" x="5" y="-5" width="5" height="5" />
      <g id="#PWR2_1" class="port" transform="translate(5,-5)">
        <text id="lbl_#PWR2_1" class="label" dominant-baseline="hanging" text-anchor="middle" x="2.5" y="7" width="0" height="0">
          GND
        </text>
      </g>
    </g>
<g transform="matrix(1,0,0,1,463.15,19.5)"><polyline points="-4.5,7.5 0,15" fill="none" stroke-width="1" stroke="black"></polyline><polyline points="0,0 0,15" fill="none" stroke-width="1" stroke="black"></polyline><polyline points="0,15 4.5,7.5" fill="none" stroke-width="1" stroke="black"></polyline><line x1="0" y1="0" x2="0" y2="0" stroke-width="1" stroke="black"></line><line x1="0" y1="0" x2="0" y2="0" stroke-width="1" stroke="black"></line><text text-anchor="end" transform="matrix(1,0,0,1,-4.5,-17.5)" svgjs:data="{&quot;leading&quot;:&quot;1.3&quot;}"><tspan dy="0" x="0" svgjs:data="{&quot;newLined&quot;:true}">#PWR1</tspan></text></g>
    <g transform="translate(458.65,12)">
      <rect id="#PWR1_1" class="node" x="2" y="15" width="5" height="5" />
      <g id="#PWR1_1" class="port" transform="translate(2,15)">
        <text id="lbl_#PWR1_1" class="label" dominant-baseline="bottom" text-anchor="middle" x="2.5" y="-2" width="0" height="0">
          VCC
        </text>
      </g>
    </g>
<g transform="matrix(1,0,0,1,544.9,72)"><polyline points="-7.5,-7.5 -7.5,7.5" fill="none" stroke-width="1" stroke="black"></polyline><polyline points="-7.5,0 7.5,0" fill="none" stroke-width="1" stroke="black"></polyline><polyline points="7.5,-7.5 7.5,7.5 -7.5,0 7.5,-7.5" fill="none" stroke-width="1" stroke="black"></polyline><polyline points="-18,-4.5 -27,-13.5 -22.5,-13.5 -27,-13.5 -27,-9" fill="none" stroke-width="1" stroke="black"></polyline><polyline points="-10.5,-4.5 -19.5,-13.5 -15,-13.5 -19.5,-13.5 -19.5,-9" fill="none" stroke-width="1" stroke="black"></polyline><line x1="-22.5" y1="0" x2="-15" y2="0" stroke-width="1" stroke="black"></line><line x1="-15" y1="0" x2="-7.5" y2="0" stroke-width="1" stroke="black"></line><line x1="22.5" y1="0" x2="15" y2="0" stroke-width="1" stroke="black"></line><line x1="15" y1="0" x2="7.5" y2="0" stroke-width="1" stroke="black"></line><text text-anchor="end" transform="matrix(1,0,0,1,-24.75,-20.5)" svgjs:data="{&quot;leading&quot;:&quot;1.3&quot;}"><tspan dy="0" x="0" svgjs:data="{&quot;newLined&quot;:true}">D9</tspan></text></g>
    <g transform="translate(520.15,61.5)">
      <rect id="D9_1" class="node" x="-5" y="8" width="5" height="5" />
      <g id="D9_1" class="port" transform="translate(-5,8)">
        <text id="lbl_D9_1" class="label" dominant-baseline="middle" text-anchor="start" x="7" y="2.5" width="0" height="0">
          K
        </text>
      </g>
      <rect id="D9_2" class="node" x="49.5" y="8" width="5" height="5" />
      <g id="D9_2" class="port" transform="translate(49.5,8)">
        <text id="lbl_D9_2" class="label" dominant-baseline="middle" text-anchor="end" x="-2" y="2.5" width="0" height="0">
          A
        </text>
      </g>
    </g>
  </g>
</svg>