<svg version="1.1" xmlns="http://www.w3.org/2000/svg" width="606.65" height="715" xmlns:xlink="http://www.w3.org/1999/xlink" xmlns:svgjs="http://svgjs.dev/svgjs">
  <defs>
    <style type="text/css">
      <![CDATA[
        rect {
          stroke-width: 1;
          shape-rendering: crispEdges;
        }
        rect.port {
          opacity: 1;
          fill: #326CB2;
        }
        text {
          font-size: 10px;
          font-family: sans-serif;
          text-align: left;
        }
        g.port > text {
          font-size: 8px;
        }
        polyline {
          fill: none;
          stroke: black;
          stroke-width: 1;
          shape-rendering: crispEdges;
        }
        path {
          fill: none;
          stroke: black;
          stroke-width: 1;
          shape-rendering: crispEdges;
        }
        line {
          fill: none;
          shape-rendering: crispEdges;
        }
      ]]>
    </style>
    <marker id="arrow" markerWidth="10" markerHeight="8" refX="10" refY="4" orient="auto">
      <path d="M0,7 L10,4 L0,1 L0,7" style="fill: #000000;" />
    </marker>
  </defs>
  <g>
    <polyline points="251,303 251,283 151,283 151,368 171,368" id="e_U1_8_U1_4" class="edge" />
    <polyline points="251,303 251,222 391,222 391,544 451,544" id="e_U1_8_PinHead9_1" class="edge" />
    <g>
      <circle cx="391.15" cy="222" r="3" class="junction" />
    </g>
    <polyline points="251,303 251,222 463,222 463,202" id="e_U1_8_R2_2" class="edge" />
    <polyline points="251,433 251,587 431,587 431,494 451,494" id="e_U1_1_PinHead9_3" class="edge" />
    <g>
      <circle cx="431.15" cy="587" r="3" class="junction" />
      <circle cx="431.15" cy="494.5" r="3" class="junction" />
    </g>
    <polyline points="251,433 251,587 431,587 431,452 463,452 463,432" id="e_U1_1_C5_2" class="edge" />
    <polyline points="251,433 251,587 431,587 431,703 463,703 463,683" id="e_U1_1_C4_2" class="edge" />
    <polyline points="251,433 251,587 515,587" id="e_U1_1_D7_1" class="edge" />
    <polyline points="171,399 151,399 151,453 351,453 351,368 331,368" id="e_U1_2_U1_6" class="edge" />
    <polyline points="171,399 111,399 111,107 463,107 463,87" id="e_U1_2_R3_2" class="edge" />
    <g>
      <circle cx="111.15" cy="399.5" r="3" class="junction" />
    </g>
    <polyline points="171,399 111,399 111,608 463,608 463,628" id="e_U1_2_C4_1" class="edge" />
    <polyline points="331,399 371,399 371,127 463,127 463,147" id="e_U1_7_R2_1" class="edge" />
    <g>
      <circle cx="371.15" cy="127" r="3" class="junction" />
    </g>
    <polyline points="331,399 371,399 371,12 463,12 463,32" id="e_U1_7_R3_1" class="edge" />
    <polyline points="171,337 131,337 131,202 431,202 431,357 463,357 463,377" id="e_U1_5_C5_1" class="edge" />
    <polyline points="463,262 463,242 594,242 594,587 574,587" id="e_R8_1_D7_2" class="edge" />
    <polyline points="331,337 411,337 411,519 451,519" id="e_U1_3_PinHead9_2" class="edge" />
    <g>
      <circle cx="411.15" cy="337" r="3" class="junction" />
    </g>
    <polyline points="331,337 463,337 463,317" id="e_U1_3_R8_2" class="edge" />
    <rect id="PinHead9" class="node" x="456.15" y="472" width="0" height="95" />
    <g transform="translate(456.15,472)">
      <rect id="PinHead9_1" class="node" x="-5" y="70" width="5" height="5" />
      <g id="PinHead9_1" class="port" transform="translate(-5,70)">
        <text id="lbl_PinHead9_1" class="label" dominant-baseline="middle" text-anchor="start" x="7" y="2.5" width="0" height="0">
          P1
        </text>
      </g>
      <rect id="PinHead9_2" class="node" x="-5" y="45" width="5" height="5" />
      <g id="PinHead9_2" class="port" transform="translate(-5,45)">
        <text id="lbl_PinHead9_2" class="label" dominant-baseline="middle" text-anchor="start" x="7" y="2.5" width="0" height="0">
          P2
        </text>
      </g>
      <rect id="PinHead9_3" class="node" x="-5" y="20" width="5" height="5" />
      <g id="PinHead9_3" class="port" transform="translate(-5,20)">
        <text id="lbl_PinHead9_3" class="label" dominant-baseline="middle" text-anchor="start" x="7" y="2.5" width="0" height="0">
          P3
        </text>
      </g>
    </g>
<g transform="matrix(1,0,0,1,463.15,289.5)"><polyline points="0,-13.5 0,-15" fill="none" stroke-width="1" stroke="black"></polyline><polyline points="0,13.5 0,15" fill="none" stroke-width="1" stroke="black"></polyline><polyline points="0,-4.5 6,-6.75 0,-9 -6,-11.25 0,-13.5" fill="none" stroke-width="1" stroke="black"></polyline><polyline points="0,4.5 6,2.25 0,0 -6,-2.25 0,-4.5" fill="none" stroke-width="1" stroke="black"></polyline><polyline points="0,13.5 6,11.25 0,9 -6,6.75 0,4.5" fill="none" stroke-width="1" stroke="black"></polyline><line x1="0" y1="22.5" x2="0" y2="18.75" stroke-width="1" stroke="black"></line><line x1="0" y1="18.75" x2="0" y2="15" stroke-width="1" stroke="black"></line><line x1="0" y1="-22.5" x2="0" y2="-18.75" stroke-width="1" stroke="black"></line><line x1="0" y1="-18.75" x2="0" y2="-15" stroke-width="1" stroke="black"></line><text text-anchor="end" transform="matrix(1,0,0,1,-6,-32.5)" svgjs:data="{&quot;leading&quot;:&quot;1.3&quot;}"><tspan dy="0" x="0" svgjs:data="{&quot;newLined&quot;:true}">R8</tspan></text></g>
    <g transform="translate(457.15,267)">
      <rect id="R8_1" class="node" x="3.5" y="-5" width="5" height="5" />
      <g id="R8_1" class="port" transform="translate(3.5,-5)">

      </g>
      <rect id="R8_2" class="node" x="3.5" y="45" width="5" height="5" />
      <g id="R8_2" class="port" transform="translate(3.5,45)">

      </g>
    </g>
<g transform="matrix(1,0,0,1,44.075,47)"><circle r="16.65" cx="7.499999999999998" cy="0" fill="none" stroke-width="1" stroke="black"></circle><polyline points="3.75,3.75 15,15" fill="none" stroke-width="1" stroke="black"></polyline><polyline points="3.75,-3.75 15,-15 15,-15" fill="none" stroke-width="1" stroke="black"></polyline><polyline points="3.75,11.25 3.75,-11.25 3.75,-11.25" fill="none" stroke-width="1" stroke="black"></polyline><polyline points="13.5,-10.5 10.5,-13.5 7.5,-7.5 13.5,-10.5 13.5,-10.5" fill="none" stroke-width="1" stroke="black"></polyline><line x1="15" y1="-30" x2="15" y2="-22.5" stroke-width="1" stroke="black"></line><line x1="15" y1="-22.5" x2="15" y2="-15" stroke-width="1" stroke="black"></line><line x1="-30" y1="0" x2="-13.125" y2="0" stroke-width="1" stroke="black"></line><line x1="-13.125" y1="0" x2="3.75" y2="0" stroke-width="1" stroke="black"></line><line x1="15" y1="30" x2="15" y2="22.5" stroke-width="1" stroke="black"></line><line x1="15" y1="22.5" x2="15" y2="15" stroke-width="1" stroke="black"></line><text text-anchor="end" transform="matrix(1,0,0,1,-27.075,-40)" svgjs:data="{&quot;leading&quot;:&quot;1.3&quot;}"><tspan dy="0" x="0" svgjs:data="{&quot;newLined&quot;:true}">Q6</tspan></text></g>
    <g transform="translate(17,17)">
      <rect id="Q6_1" class="node" x="24.575" y="60" width="5" height="5" />
      <g id="Q6_1" class="port" transform="translate(24.575,60)">
        <text id="lbl_Q6_1" class="label" dominant-baseline="bottom" text-anchor="middle" x="2.5" y="-2" width="0" height="0">
          E
        </text>
      </g>
      <rect id="Q6_2" class="node" x="-5" y="27.5" width="5" height="5" />
      <g id="Q6_2" class="port" transform="translate(-5,27.5)">
        <text id="lbl_Q6_2" class="label" dominant-baseline="middle" text-anchor="start" x="7" y="2.5" width="0" height="0">
          B
        </text>
      </g>
      <rect id="Q6_3" class="node" x="24.575" y="-5" width="5" height="5" />
      <g id="Q6_3" class="port" transform="translate(24.575,-5)">
        <text id="lbl_Q6_3" class="label" dominant-baseline="hanging" text-anchor="middle" x="2.5" y="7" width="0" height="0">
          C
        </text>
      </g>
    </g>
<g transform="matrix(1,0,0,1,463.15,404.5)"><polyline points="-12,-4.5 12,-4.5" fill="none" stroke-width="1" stroke="black"></polyline><polyline points="-12,4.5 12,4.5" fill="none" stroke-width="1" stroke="black"></polyline><line x1="0" y1="22.5" x2="0" y2="14.25" stroke-width="1" stroke="black"></line><line x1="0" y1="14.25" x2="0" y2="6" stroke-width="1" stroke="black"></line><line x1="0" y1="-22.5" x2="0" y2="-14.25" stroke-width="1" stroke="black"></line><line x1="0" y1="-14.25" x2="0" y2="-6" stroke-width="1" stroke="black"></line><text text-anchor="end" transform="matrix(1,0,0,1,-12,-32.5)" svgjs:data="{&quot;leading&quot;:&quot;1.3&quot;}"><tspan dy="0" x="0" svgjs:data="{&quot;newLined&quot;:true}">C5</tspan></text><text text-anchor="start" transform="matrix(1,0,0,1,12,-32.5)" svgjs:data="{&quot;leading&quot;:&quot;1.3&quot;}"><tspan dy="0" x="0" svgjs:data="{&quot;newLined&quot;:true}">10nF</tspan></text></g>
    <g transform="translate(451.15,382)">
      <rect id="C5_1" class="node" x="9.5" y="-5" width="5" height="5" />
      <g id="C5_1" class="port" transform="translate(9.5,-5)">

      </g>
      <rect id="C5_2" class="node" x="9.5" y="45" width="5" height="5" />
      <g id="C5_2" class="port" transform="translate(9.5,45)">

      </g>
    </g>
<g transform="matrix(1,0,0,1,463.15,655.5)"><polyline points="-12,-4.5 12,-4.5" fill="none" stroke-width="1" stroke="black"></polyline><polyline points="-12,4.5 12,4.5" fill="none" stroke-width="1" stroke="black"></polyline><line x1="0" y1="22.5" x2="0" y2="14.25" stroke-width="1" stroke="black"></line><line x1="0" y1="14.25" x2="0" y2="6" stroke-width="1" stroke="black"></line><line x1="0" y1="-22.5" x2="0" y2="-14.25" stroke-width="1" stroke="black"></line><line x1="0" y1="-14.25" x2="0" y2="-6" stroke-width="1" stroke="black"></line><text text-anchor="end" transform="matrix(1,0,0,1,-12,-32.5)" svgjs:data="{&quot;leading&quot;:&quot;1.3&quot;}"><tspan dy="0" x="0" svgjs:data="{&quot;newLined&quot;:true}">C4</tspan></text><text text-anchor="start" transform="matrix(1,0,0,1,12,-32.5)" svgjs:data="{&quot;leading&quot;:&quot;1.3&quot;}"><tspan dy="0" x="0" svgjs:data="{&quot;newLined&quot;:true}">1uF</tspan></text></g>
    <g transform="translate(451.15,633)">
      <rect id="C4_1" class="node" x="9.5" y="-5" width="5" height="5" />
      <g id="C4_1" class="port" transform="translate(9.5,-5)">

      </g>
      <rect id="C4_2" class="node" x="9.5" y="45" width="5" height="5" />
      <g id="C4_2" class="port" transform="translate(9.5,45)">

      </g>
    </g>
<g transform="matrix(1,0,0,1,463.15,59.5)"><polyline points="0,-13.5 0,-15" fill="none" stroke-width="1" stroke="black"></polyline><polyline points="0,13.5 0,15" fill="none" stroke-width="1" stroke="black"></polyline><polyline points="0,-4.5 6,-6.75 0,-9 -6,-11.25 0,-13.5" fill="none" stroke-width="1" stroke="black"></polyline><polyline points="0,4.5 6,2.25 0,0 -6,-2.25 0,-4.5" fill="none" stroke-width="1" stroke="black"></polyline><polyline points="0,13.5 6,11.25 0,9 -6,6.75 0,4.5" fill="none" stroke-width="1" stroke="black"></polyline><line x1="0" y1="22.5" x2="0" y2="18.75" stroke-width="1" stroke="black"></line><line x1="0" y1="18.75" x2="0" y2="15" stroke-width="1" stroke="black"></line><line x1="0" y1="-22.5" x2="0" y2="-18.75" stroke-width="1" stroke="black"></line><line x1="0" y1="-18.75" x2="0" y2="-15" stroke-width="1" stroke="black"></line><text text-anchor="end" transform="matrix(1,0,0,1,-6,-32.5)" svgjs:data="{&quot;leading&quot;:&quot;1.3&quot;}"><tspan dy="0" x="0" svgjs:data="{&quot;newLined&quot;:true}">R3</tspan></text><text text-anchor="start" transform="matrix(1,0,0,1,6,-32.5)" svgjs:data="{&quot;leading&quot;:&quot;1.3&quot;}"><tspan dy="0" x="0" svgjs:data="{&quot;newLined&quot;:true}">715k</tspan></text></g>
    <g transform="translate(457.15,37)">
      <rect id="R3_1" class="node" x="3.5" y="-5" width="5" height="5" />
      <g id="R3_1" class="port" transform="translate(3.5,-5)">

      </g>
      <rect id="R3_2" class="node" x="3.5" y="45" width="5" height="5" />
      <g id="R3_2" class="port" transform="translate(3.5,45)">

      </g>
    </g>
<g transform="matrix(1,0,0,1,463.15,174.5)"><polyline points="0,-13.5 0,-15" fill="none" stroke-width="1" stroke="black"></polyline><polyline points="0,13.5 0,15" fill="none" stroke-width="1" stroke="black"></polyline><polyline points="0,-4.5 6,-6.75 0,-9 -6,-11.25 0,-13.5" fill="none" stroke-width="1" stroke="black"></polyline><polyline points="0,4.5 6,2.25 0,0 -6,-2.25 0,-4.5" fill="none" stroke-width="1" stroke="black"></polyline><polyline points="0,13.5 6,11.25 0,9 -6,6.75 0,4.5" fill="none" stroke-width="1" stroke="black"></polyline><line x1="0" y1="22.5" x2="0" y2="18.75" stroke-width="1" stroke="black"></line><line x1="0" y1="18.75" x2="0" y2="15" stroke-width="1" stroke="black"></line><line x1="0" y1="-22.5" x2="0" y2="-18.75" stroke-width="1" stroke="black"></line><line x1="0" y1="-18.75" x2="0" y2="-15" stroke-width="1" stroke="black"></line><text text-anchor="end" transform="matrix(1,0,0,1,-6,-32.5)" svgjs:data="{&quot;leading&quot;:&quot;1.3&quot;}"><tspan dy="0" x="0" svgjs:data="{&quot;newLined&quot;:true}">R2</tspan></text><text text-anchor="start" transform="matrix(1,0,0,1,6,-32.5)" svgjs:data="{&quot;leading&quot;:&quot;1.3&quot;}"><tspan dy="0" x="0" svgjs:data="{&quot;newLined&quot;:true}">10k</tspan></text></g>
    <g transform="translate(457.15,152)">
      <rect id="R2_1" class="node" x="3.5" y="-5" width="5" height="5" />
      <g id="R2_1" class="port" transform="translate(3.5,-5)">

      </g>
      <rect id="R2_2" class="node" x="3.5" y="45" width="5" height="5" />
      <g id="R2_2" class="port" transform="translate(3.5,45)">

      </g>
    </g>
<g transform="matrix(1,0,0,1,251.15,368.25)"><rect width="105" height="90" x="-52.5" y="-45" fill="none" stroke-width="1" stroke="black"></rect><rect width="105" height="90" x="-52.5" y="-45" fill="none" stroke-width="1" stroke="black"></rect><line x1="0" y1="-60" x2="0" y2="-52.5" stroke-width="1" stroke="black"></line><line x1="0" y1="-52.5" x2="0" y2="-45" stroke-width="1" stroke="black"></line><line x1="0" y1="60" x2="0" y2="52.5" stroke-width="1" stroke="black"></line><line x1="0" y1="52.5" x2="0" y2="45" stroke-width="1" stroke="black"></line><line x1="-75" y1="30" x2="-63.75" y2="30" stroke-width="1" stroke="black"></line><line x1="-63.75" y1="30" x2="-52.5" y2="30" stroke-width="1" stroke="black"></line><line x1="75" y1="30" x2="63.75" y2="30" stroke-width="1" stroke="black"></line><line x1="63.75" y1="30" x2="52.5" y2="30" stroke-width="1" stroke="black"></line><line x1="-75" y1="-30" x2="-63.75" y2="-30" stroke-width="1" stroke="black"></line><line x1="-63.75" y1="-30" x2="-52.5" y2="-30" stroke-width="1" stroke="black"></line><line x1="-75" y1="0" x2="-63.75" y2="0" stroke-width="1" stroke="black"></line><line x1="-63.75" y1="0" x2="-52.5" y2="0" stroke-width="1" stroke="black"></line><line x1="75" y1="-30" x2="63.75" y2="-30" stroke-width="1" stroke="black"></line><line x1="63.75" y1="-30" x2="52.5" y2="-30" stroke-width="1" stroke="black"></line><line x1="75" y1="0" x2="63.75" y2="0" stroke-width="1" stroke="black"></line><line x1="63.75" y1="0" x2="52.5" y2="0" stroke-width="1" stroke="black"></line><text text-anchor="end" transform="matrix(1,0,0,1,-75,-70)" svgjs:data="{&quot;leading&quot;:&quot;1.3&quot;}"><tspan dy="0" x="0" svgjs:data="{&quot;newLined&quot;:true}">U1</tspan></text></g>
    <g transform="translate(176.15,308.25)">
      <rect id="U1_1" class="node" x="72.5" y="120" width="5" height="5" />
      <g id="U1_1" class="port" transform="translate(72.5,120)">
        <text id="lbl_U1_1" class="label" dominant-baseline="bottom" text-anchor="middle" x="2.5" y="-2" width="0" height="0">
          GND
        </text>
      </g>
      <rect id="U1_2" class="node" x="-5" y="88.75" width="5" height="5" />
      <g id="U1_2" class="port" transform="translate(-5,88.75)">
        <text id="lbl_U1_2" class="label" dominant-baseline="middle" text-anchor="start" x="7" y="2.5" width="0" height="0">
          TR
        </text>
      </g>
      <rect id="U1_3" class="node" x="150" y="26.25" width="5" height="5" />
      <g id="U1_3" class="port" transform="translate(150,26.25)">
        <text id="lbl_U1_3" class="label" dominant-baseline="middle" text-anchor="end" x="-2" y="2.5" width="0" height="0">
          Q
        </text>
      </g>
      <rect id="U1_4" class="node" x="-5" y="57.5" width="5" height="5" />
      <g id="U1_4" class="port" transform="translate(-5,57.5)">
        <text id="lbl_U1_4" class="label" dominant-baseline="middle" text-anchor="start" x="7" y="2.5" width="0" height="0">
          R
        </text>
      </g>
      <rect id="U1_5" class="node" x="-5" y="26.25" width="5" height="5" />
      <g id="U1_5" class="port" transform="translate(-5,26.25)">
        <text id="lbl_U1_5" class="label" dominant-baseline="middle" text-anchor="start" x="7" y="2.5" width="0" height="0">
          CV
        </text>
      </g>
      <rect id="U1_6" class="node" x="150" y="57.5" width="5" height="5" />
      <g id="U1_6" class="port" transform="translate(150,57.5)">
        <text id="lbl_U1_6" class="label" dominant-baseline="middle" text-anchor="end" x="-2" y="2.5" width="0" height="0">
          THR
        </text>
      </g>
      <rect id="U1_7" class="node" x="150" y="88.75" width="5" height="5" />
      <g id="U1_7" class="port" transform="translate(150,88.75)">
        <text id="lbl_U1_7" class="label" dominant-baseline="middle" text-anchor="end" x="-2" y="2.5" width="0" height="0">
          DIS
        </text>
      </g>
      <rect id="U1_8" class="node" x="72.5" y="-5" width="5" height="5" />
      <g id="U1_8" class="port" transform="translate(72.5,-5)">
        <text id="lbl_U1_8" class="label" dominant-baseline="hanging" text-anchor="middle" x="2.5" y="7" width="0" height="0">
          VCC
        </text>
      </g>
    </g>
<g transform="matrix(1,0,0,1,544.9,587)"><polyline points="-7.5,-7.5 -7.5,7.5" fill="none" stroke-width="1" stroke="black"></polyline><polyline points="-7.5,0 7.5,0" fill="none" stroke-width="1" stroke="black"></polyline><polyline points="7.5,-7.5 7.5,7.5 -7.5,0 7.5,-7.5" fill="none" stroke-width="1" stroke="black"></polyline><polyline points="-18,-4.5 -27,-13.5 -22.5,-13.5 -27,-13.5 -27,-9" fill="none" stroke-width="1" stroke="black"></polyline><polyline points="-10.5,-4.5 -19.5,-13.5 -15,-13.5 -19.5,-13.5 -19.5,-9" fill="none" stroke-width="1" stroke="black"></polyline><line x1="-22.5" y1="0" x2="-15" y2="0" stroke-width="1" stroke="black"></line><line x1="-15" y1="0" x2="-7.5" y2="0" stroke-width="1" stroke="black"></line><line x1="22.5" y1="0" x2="15" y2="0" stroke-width="1" stroke="black"></line><line x1="15" y1="0" x2="7.5" y2="0" stroke-width="1" stroke="black"></line><text text-anchor="end" transform="matrix(1,0,0,1,-24.75,-20.5)" svgjs:data="{&quot;leading&quot;:&quot;1.3&quot;}"><tspan dy="0" x="0" svgjs:data="{&quot;newLined&quot;:true}">D7</tspan></text></g>
    <g transform="translate(520.15,576.5)">
      <rect id="D7_1" class="node" x="-5" y="8" width="5" height="5" />
      <g id="D7_1" class="port" transform="translate(-5,8)">
        <text id="lbl_D7_1" class="label" dominant-baseline="middle" text-anchor="start" x="7" y="2.5" width="0" height="0">
          K
        </text>
      </g>
      <rect id="D7_2" class="node" x="49.5" y="8" width="5" height="5" />
      <g id="D7_2" class="port" transform="translate(49.5,8)">
        <text id="lbl_D7_2" class="label" dominant-baseline="middle" text-anchor="end" x="-2" y="2.5" width="0" height="0">
          A
        </text>
      </g>
    </g>
  </g>
</svg>