<svg version="1.1" xmlns="http://www.w3.org/2000/svg" width="447.5" height="598" xmlns:xlink="http://www.w3.org/1999/xlink" xmlns:svgjs="http://svgjs.dev/svgjs">
  <defs>
    <style type="text/css">
      <![CDATA[
        rect {
          opacity: 0.8;
          fill: #6094CC;
          stroke-width: 1;
          stroke: #222222;
          shape-rendering: crispEdges;
        }
        rect.port {
          opacity: 1;
          fill: #326CB2;
        }
        text {
          font-size: 10px;
          font-family: sans-serif;
          /* in elk's coordinates "hanging" would be the correct value" */
          dominant-baseline: hanging;
          text-align: left;
        }
        g.port > text {
          font-size: 8px;
        }
        polyline {
          fill: none;
          stroke: black;
          stroke-width: 1;
          shape-rendering: crispEdges;
        }
        path {
          fill: none;
          stroke: black;
          stroke-width: 1;
          shape-rendering: crispEdges;
        }
      ]]>
    </style>
    <marker id="arrow" markerWidth="10" markerHeight="8" refX="10" refY="4" orient="auto">
      <path d="M0,7 L10,4 L0,1 L0,7" style="fill: #000000;" />
    </marker>
  </defs>
  <g>
    <polyline points="129,265 129,245 52,245 52,315 72,315" id="e_U1_8_U1_4" class="edge" />
    <polyline points="129,265 129,192 247,192 247,463 307,463" id="e_U1_8_PinHead8_1" class="edge" />
    <g>
      <circle cx="247" cy="192" r="3" class="junction" />
    </g>
    <polyline points="129,265 129,192 319,192 319,172" id="e_U1_8_R2_2" class="edge" />
    <polyline points="129,365 129,506 287,506 287,413 307,413" id="e_U1_1_PinHead8_3" class="edge" />
    <g>
      <circle cx="287" cy="506" r="3" class="junction" />
      <circle cx="287" cy="413.5" r="3" class="junction" />
    </g>
    <polyline points="129,365 129,506 287,506 287,371 319,371 319,351" id="e_U1_1_C5_2" class="edge" />
    <polyline points="129,365 129,506 287,506 287,586 319,586 319,566" id="e_U1_1_C4_2" class="edge" />
    <polyline points="129,365 129,506 371,506" id="e_U1_1_D6_1" class="edge" />
    <polyline points="72,339 52,339 52,385 207,385 207,315 187,315" id="e_U1_2_U1_6" class="edge" />
    <polyline points="72,339 12,339 12,92 319,92 319,72" id="e_U1_2_R3_2" class="edge" />
    <g>
      <circle cx="12" cy="339.5" r="3" class="junction" />
    </g>
    <polyline points="72,339 12,339 12,527 319,527 319,547" id="e_U1_2_C4_1" class="edge" />
    <polyline points="187,339 227,339 227,112 319,112 319,132" id="e_U1_7_R2_1" class="edge" />
    <g>
      <circle cx="227" cy="112" r="3" class="junction" />
    </g>
    <polyline points="187,339 227,339 227,12 319,12 319,32" id="e_U1_7_R3_1" class="edge" />
    <polyline points="72,292 32,292 32,172 287,172 287,312 319,312 319,332" id="e_U1_5_C5_1" class="edge" />
    <polyline points="319,232 319,212 435,212 435,506 415,506" id="e_R7_1_D6_2" class="edge" />
    <polyline points="187,292 267,292 267,438 307,438" id="e_U1_3_PinHead8_2" class="edge" />
    <g>
      <circle cx="267" cy="292" r="3" class="junction" />
    </g>
    <polyline points="187,292 319,292 319,272" id="e_U1_3_R7_2" class="edge" />
    <rect id="PinHead8" class="node" x="312" y="391" width="0" height="95" />
    <g transform="translate(312,391)">
      <g id="PinHead8_1" class="port" transform="translate(-5,70)">
        <text id="lbl_PinHead8_1" class="label" x="7" y="2.5" width="0" height="0">
          P1
        </text>
      </g>
      <g id="PinHead8_2" class="port" transform="translate(-5,45)">
        <text id="lbl_PinHead8_2" class="label" x="7" y="2.5" width="0" height="0">
          P2
        </text>
      </g>
      <g id="PinHead8_3" class="port" transform="translate(-5,20)">
        <text id="lbl_PinHead8_3" class="label" x="7" y="2.5" width="0" height="0">
          P3
        </text>
      </g>
    </g>
<g transform="matrix(1,0,0,1,319,252)"><polyline points="0,-13.5 0,-15" fill="none" stroke-width="2" stroke="black"></polyline><polyline points="0,13.5 0,15" fill="none" stroke-width="2" stroke="black"></polyline><polyline points="0,-4.5 6,-6.75 0,-9 -6,-11.25 0,-13.5" fill="none" stroke-width="2" stroke="black"></polyline><polyline points="0,4.5 6,2.25 0,0 -6,-2.25 0,-4.5" fill="none" stroke-width="2" stroke="black"></polyline><polyline points="0,13.5 6,11.25 0,9 -6,6.75 0,4.5" fill="none" stroke-width="2" stroke="black"></polyline><text text-anchor="end" transform="matrix(1,0,0,1,-6,-25)" svgjs:data="{&quot;leading&quot;:&quot;1.3&quot;}"><tspan dy="0" x="0" svgjs:data="{&quot;newLined&quot;:true}">R7</tspan></text></g>
    <g transform="translate(313,237)">
      <g id="R7_1" class="port" transform="translate(3.5,-5)">
        <text id="lbl_R7_1" class="label" x="2.5" y="7" width="0" height="0">
          ~
        </text>
      </g>
      <g id="R7_2" class="port" transform="translate(3.5,30)">
        <text id="lbl_R7_2" class="label" x="2.5" y="-2" width="0" height="0">
          ~
        </text>
      </g>
    </g>
<g transform="matrix(1,0,0,1,319,341.5)"><polyline points="-12,-4.5 12,-4.5" fill="none" stroke-width="2" stroke="black"></polyline><polyline points="-12,4.5 12,4.5" fill="none" stroke-width="2" stroke="black"></polyline><text text-anchor="end" transform="matrix(1,0,0,1,-12,-14.5)" svgjs:data="{&quot;leading&quot;:&quot;1.3&quot;}"><tspan dy="0" x="0" svgjs:data="{&quot;newLined&quot;:true}">C5</tspan></text><text text-anchor="start" transform="matrix(1,0,0,1,12,-14.5)" svgjs:data="{&quot;leading&quot;:&quot;1.3&quot;}"><tspan dy="0" x="0" svgjs:data="{&quot;newLined&quot;:true}">10nF</tspan></text></g>
    <g transform="translate(307,337)">
      <g id="C5_1" class="port" transform="translate(9.5,-5)">
        <text id="lbl_C5_1" class="label" x="2.5" y="7" width="0" height="0">
          ~
        </text>
      </g>
      <g id="C5_2" class="port" transform="translate(9.5,9)">
        <text id="lbl_C5_2" class="label" x="2.5" y="-2" width="0" height="0">
          ~
        </text>
      </g>
    </g>
<g transform="matrix(1,0,0,1,319,556.5)"><polyline points="-12,-4.5 12,-4.5" fill="none" stroke-width="2" stroke="black"></polyline><polyline points="-12,4.5 12,4.5" fill="none" stroke-width="2" stroke="black"></polyline><text text-anchor="end" transform="matrix(1,0,0,1,-12,-14.5)" svgjs:data="{&quot;leading&quot;:&quot;1.3&quot;}"><tspan dy="0" x="0" svgjs:data="{&quot;newLined&quot;:true}">C4</tspan></text><text text-anchor="start" transform="matrix(1,0,0,1,12,-14.5)" svgjs:data="{&quot;leading&quot;:&quot;1.3&quot;}"><tspan dy="0" x="0" svgjs:data="{&quot;newLined&quot;:true}">1uF</tspan></text></g>
    <g transform="translate(307,552)">
      <g id="C4_1" class="port" transform="translate(9.5,-5)">
        <text id="lbl_C4_1" class="label" x="2.5" y="7" width="0" height="0">
          ~
        </text>
      </g>
      <g id="C4_2" class="port" transform="translate(9.5,9)">
        <text id="lbl_C4_2" class="label" x="2.5" y="-2" width="0" height="0">
          ~
        </text>
      </g>
    </g>
<g transform="matrix(1,0,0,1,319,52)"><polyline points="0,-13.5 0,-15" fill="none" stroke-width="2" stroke="black"></polyline><polyline points="0,13.5 0,15" fill="none" stroke-width="2" stroke="black"></polyline><polyline points="0,-4.5 6,-6.75 0,-9 -6,-11.25 0,-13.5" fill="none" stroke-width="2" stroke="black"></polyline><polyline points="0,4.5 6,2.25 0,0 -6,-2.25 0,-4.5" fill="none" stroke-width="2" stroke="black"></polyline><polyline points="0,13.5 6,11.25 0,9 -6,6.75 0,4.5" fill="none" stroke-width="2" stroke="black"></polyline><text text-anchor="end" transform="matrix(1,0,0,1,-6,-25)" svgjs:data="{&quot;leading&quot;:&quot;1.3&quot;}"><tspan dy="0" x="0" svgjs:data="{&quot;newLined&quot;:true}">R3</tspan></text><text text-anchor="start" transform="matrix(1,0,0,1,6,-25)" svgjs:data="{&quot;leading&quot;:&quot;1.3&quot;}"><tspan dy="0" x="0" svgjs:data="{&quot;newLined&quot;:true}">715k</tspan></text></g>
    <g transform="translate(313,37)">
      <g id="R3_1" class="port" transform="translate(3.5,-5)">
        <text id="lbl_R3_1" class="label" x="2.5" y="7" width="0" height="0">
          ~
        </text>
      </g>
      <g id="R3_2" class="port" transform="translate(3.5,30)">
        <text id="lbl_R3_2" class="label" x="2.5" y="-2" width="0" height="0">
          ~
        </text>
      </g>
    </g>
<g transform="matrix(1,0,0,1,319,152)"><polyline points="0,-13.5 0,-15" fill="none" stroke-width="2" stroke="black"></polyline><polyline points="0,13.5 0,15" fill="none" stroke-width="2" stroke="black"></polyline><polyline points="0,-4.5 6,-6.75 0,-9 -6,-11.25 0,-13.5" fill="none" stroke-width="2" stroke="black"></polyline><polyline points="0,4.5 6,2.25 0,0 -6,-2.25 0,-4.5" fill="none" stroke-width="2" stroke="black"></polyline><polyline points="0,13.5 6,11.25 0,9 -6,6.75 0,4.5" fill="none" stroke-width="2" stroke="black"></polyline><text text-anchor="end" transform="matrix(1,0,0,1,-6,-25)" svgjs:data="{&quot;leading&quot;:&quot;1.3&quot;}"><tspan dy="0" x="0" svgjs:data="{&quot;newLined&quot;:true}">R2</tspan></text><text text-anchor="start" transform="matrix(1,0,0,1,6,-25)" svgjs:data="{&quot;leading&quot;:&quot;1.3&quot;}"><tspan dy="0" x="0" svgjs:data="{&quot;newLined&quot;:true}">10k</tspan></text></g>
    <g transform="translate(313,137)">
      <g id="R2_1" class="port" transform="translate(3.5,-5)">
        <text id="lbl_R2_1" class="label" x="2.5" y="7" width="0" height="0">
          ~
        </text>
      </g>
      <g id="R2_2" class="port" transform="translate(3.5,30)">
        <text id="lbl_R2_2" class="label" x="2.5" y="-2" width="0" height="0">
          ~
        </text>
      </g>
    </g>
<g transform="matrix(1,0,0,1,129.5,315.75)"><rect width="105" height="90" x="-52.5" y="-45" fill="none" stroke-width="2" stroke="black"></rect><rect width="105" height="90" x="-52.5" y="-45" fill="none" stroke-width="2" stroke="black"></rect><text text-anchor="end" transform="matrix(1,0,0,1,-52.5,-55)" svgjs:data="{&quot;leading&quot;:&quot;1.3&quot;}"><tspan dy="0" x="0" svgjs:data="{&quot;newLined&quot;:true}">U1</tspan></text></g>
    <g transform="translate(77,270.75)">
      <g id="U1_1" class="port" transform="translate(50,90)">
        <text id="lbl_U1_1" class="label" x="2.5" y="-2" width="0" height="0">
          GND
        </text>
      </g>
      <g id="U1_2" class="port" transform="translate(-5,66.25)">
        <text id="lbl_U1_2" class="label" x="7" y="2.5" width="0" height="0">
          TR
        </text>
      </g>
      <g id="U1_3" class="port" transform="translate(105,18.75)">
        <text id="lbl_U1_3" class="label" x="-2" y="2.5" width="0" height="0">
          Q
        </text>
      </g>
      <g id="U1_4" class="port" transform="translate(-5,42.5)">
        <text id="lbl_U1_4" class="label" x="7" y="2.5" width="0" height="0">
          R
        </text>
      </g>
      <g id="U1_5" class="port" transform="translate(-5,18.75)">
        <text id="lbl_U1_5" class="label" x="7" y="2.5" width="0" height="0">
          CV
        </text>
      </g>
      <g id="U1_6" class="port" transform="translate(105,42.5)">
        <text id="lbl_U1_6" class="label" x="-2" y="2.5" width="0" height="0">
          THR
        </text>
      </g>
      <g id="U1_7" class="port" transform="translate(105,66.25)">
        <text id="lbl_U1_7" class="label" x="-2" y="2.5" width="0" height="0">
          DIS
        </text>
      </g>
      <g id="U1_8" class="port" transform="translate(50,-5)">
        <text id="lbl_U1_8" class="label" x="2.5" y="7" width="0" height="0">
          VCC
        </text>
      </g>
    </g>
<g transform="matrix(1,0,0,1,393.25,506)"><polyline points="-7.5,-7.5 -7.5,7.5" fill="none" stroke-width="2" stroke="black"></polyline><polyline points="-7.5,0 7.5,0" fill="none" stroke-width="2" stroke="black"></polyline><polyline points="7.5,-7.5 7.5,7.5 -7.5,0 7.5,-7.5" fill="none" stroke-width="2" stroke="black"></polyline><polyline points="-18,-4.5 -27,-13.5 -22.5,-13.5 -27,-13.5 -27,-9" fill="none" stroke-width="2" stroke="black"></polyline><polyline points="-10.5,-4.5 -19.5,-13.5 -15,-13.5 -19.5,-13.5 -19.5,-9" fill="none" stroke-width="2" stroke="black"></polyline><text text-anchor="end" transform="matrix(1,0,0,1,-17.25,-20.5)" svgjs:data="{&quot;leading&quot;:&quot;1.3&quot;}"><tspan dy="0" x="0" svgjs:data="{&quot;newLined&quot;:true}">D6</tspan></text></g>
    <g transform="translate(376,495.5)">
      <g id="D6_1" class="port" transform="translate(-5,8)">
        <text id="lbl_D6_1" class="label" x="7" y="2.5" width="0" height="0">
          K
        </text>
      </g>
      <g id="D6_2" class="port" transform="translate(34.5,8)">
        <text id="lbl_D6_2" class="label" x="-2" y="2.5" width="0" height="0">
          A
        </text>
      </g>
    </g>
  </g>
</svg>