<svg version="1.1" xmlns="http://www.w3.org/2000/svg" width="341" height="490" xmlns:xlink="http://www.w3.org/1999/xlink" xmlns:svgjs="http://svgjs.dev/svgjs">
  <defs>
    <style type="text/css">
      <![CDATA[
        rect {
          stroke-width: 1;
          shape-rendering: crispEdges;
        }
        rect.port {
          opacity: 1;
          fill: #326CB2;
        }
        text {
          font-size: 10px;
          font-family: sans-serif;
          text-align: left;
        }
        g.port > text {
          font-size: 8px;
        }
        polyline {
          fill: none;
          stroke: black;
          stroke-width: 1;
          shape-rendering: crispEdges;
        }
        path {
          fill: none;
          stroke: black;
          stroke-width: 1;
          shape-rendering: crispEdges;
        }
        line {
          fill: none;
          shape-rendering: crispEdges;
        }
      ]]>
    </style>
    <marker id="arrow" markerWidth="10" markerHeight="8" refX="10" refY="4" orient="auto">
      <path d="M0,7 L10,4 L0,1 L0,7" style="fill: #000000;" />
    </marker>
  </defs>
  <g>
    <polyline points="129,198 129,178 102,178 102,203 122,203" id="e_U1_8_U1_4" class="edge" />
    <polyline points="129,198 129,132 192,132 192,364 252,364" id="e_U1_8_PinHead9_1" class="edge" />
    <g>
      <circle cx="192" cy="132" r="3" class="junction" />
    </g>
    <polyline points="129,198 129,132 256,132 256,112" id="e_U1_8_R2_2" class="edge" />
    <polyline points="129,208 129,407 232,407 232,314 252,314" id="e_U1_1_PinHead9_3" class="edge" />
    <g>
      <circle cx="232" cy="407" r="3" class="junction" />
      <circle cx="232" cy="314.5" r="3" class="junction" />
    </g>
    <polyline points="129,208 129,407 232,407 232,272 256,272 256,252" id="e_U1_1_C5_2" class="edge" />
    <polyline points="129,208 129,407 232,407 232,478 256,478 256,458" id="e_U1_1_C4_2" class="edge" />
    <polyline points="129,208 129,407 299,407" id="e_U1_1_D7_1" class="edge" />
    <polyline points="122,204 102,204 102,228 152,228 152,203 132,203" id="e_U1_2_U1_6" class="edge" />
    <polyline points="122,204 62,204 62,62 256,62 256,42" id="e_U1_2_R3_2" class="edge" />
    <g>
      <circle cx="62" cy="204.5" r="3" class="junction" />
    </g>
    <polyline points="122,204 62,204 62,428 256,428 256,448" id="e_U1_2_C4_1" class="edge" />
    <polyline points="132,204 172,204 172,82 256,82 256,102" id="e_U1_7_R2_1" class="edge" />
    <g>
      <circle cx="172" cy="82" r="3" class="junction" />
    </g>
    <polyline points="132,204 172,204 172,12 256,12 256,32" id="e_U1_7_R3_1" class="edge" />
    <polyline points="122,202 82,202 82,112 232,112 232,222 256,222 256,242" id="e_U1_5_C5_1" class="edge" />
    <polyline points="256,172 256,152 329,152 329,407 309,407" id="e_R8_1_D7_2" class="edge" />
    <polyline points="132,202 212,202 212,339 252,339" id="e_U1_3_PinHead9_2" class="edge" />
    <g>
      <circle cx="212" cy="202" r="3" class="junction" />
    </g>
    <polyline points="132,202 256,202 256,182" id="e_U1_3_R8_2" class="edge" />
<g transform="matrix(1,0,0,1,127,203.25)"><text text-anchor="end" transform="matrix(1,0,0,1,0,-10)" svgjs:data="{&quot;leading&quot;:&quot;1.3&quot;}"><tspan dy="0" x="0" svgjs:data="{&quot;newLined&quot;:true}">U1</tspan></text></g>
    <g transform="translate(127,203.25)">
      <rect id="U1_1" class="node" x="0" y="0" width="5" height="5" />
      <g id="U1_1" class="port" transform="translate(0,0)">
        <text id="lbl_U1_1" class="label" dominant-baseline="bottom" text-anchor="middle" x="2.5" y="-2" width="0" height="0">
          GND
        </text>
      </g>
      <rect id="U1_2" class="node" x="-5" y="-1.25" width="5" height="5" />
      <g id="U1_2" class="port" transform="translate(-5,-1.25)">
        <text id="lbl_U1_2" class="label" dominant-baseline="middle" text-anchor="start" x="7" y="2.5" width="0" height="0">
          TR
        </text>
      </g>
      <rect id="U1_3" class="node" x="0" y="-3.75" width="5" height="5" />
      <g id="U1_3" class="port" transform="translate(0,-3.75)">
        <text id="lbl_U1_3" class="label" dominant-baseline="middle" text-anchor="end" x="-2" y="2.5" width="0" height="0">
          Q
        </text>
      </g>
      <rect id="U1_4" class="node" x="-5" y="-2.5" width="5" height="5" />
      <g id="U1_4" class="port" transform="translate(-5,-2.5)">
        <text id="lbl_U1_4" class="label" dominant-baseline="middle" text-anchor="start" x="7" y="2.5" width="0" height="0">
          R
        </text>
      </g>
      <rect id="U1_5" class="node" x="-5" y="-3.75" width="5" height="5" />
      <g id="U1_5" class="port" transform="translate(-5,-3.75)">
        <text id="lbl_U1_5" class="label" dominant-baseline="middle" text-anchor="start" x="7" y="2.5" width="0" height="0">
          CV
        </text>
      </g>
      <rect id="U1_6" class="node" x="0" y="-2.5" width="5" height="5" />
      <g id="U1_6" class="port" transform="translate(0,-2.5)">
        <text id="lbl_U1_6" class="label" dominant-baseline="middle" text-anchor="end" x="-2" y="2.5" width="0" height="0">
          THR
        </text>
      </g>
      <rect id="U1_7" class="node" x="0" y="-1.25" width="5" height="5" />
      <g id="U1_7" class="port" transform="translate(0,-1.25)">
        <text id="lbl_U1_7" class="label" dominant-baseline="middle" text-anchor="end" x="-2" y="2.5" width="0" height="0">
          DIS
        </text>
      </g>
      <rect id="U1_8" class="node" x="0" y="-5" width="5" height="5" />
      <g id="U1_8" class="port" transform="translate(0,-5)">
        <text id="lbl_U1_8" class="label" dominant-baseline="hanging" text-anchor="middle" x="2.5" y="7" width="0" height="0">
          VCC
        </text>
      </g>
    </g>
<g transform="matrix(1,0,0,1,254,107)"><text text-anchor="end" transform="matrix(1,0,0,1,0,-10)" svgjs:data="{&quot;leading&quot;:&quot;1.3&quot;}"><tspan dy="0" x="0" svgjs:data="{&quot;newLined&quot;:true}">R2</tspan></text><text text-anchor="start" transform="matrix(1,0,0,1,0,-10)" svgjs:data="{&quot;leading&quot;:&quot;1.3&quot;}"><tspan dy="0" x="0" svgjs:data="{&quot;newLined&quot;:true}">10k</tspan></text></g>
    <g transform="translate(254,107)">
      <rect id="R2_1" class="node" x="0" y="-5" width="5" height="5" />
      <g id="R2_1" class="port" transform="translate(0,-5)">

      </g>
      <rect id="R2_2" class="node" x="0" y="0" width="5" height="5" />
      <g id="R2_2" class="port" transform="translate(0,0)">

      </g>
    </g>
<g transform="matrix(1,0,0,1,254,37)"><text text-anchor="end" transform="matrix(1,0,0,1,0,-10)" svgjs:data="{&quot;leading&quot;:&quot;1.3&quot;}"><tspan dy="0" x="0" svgjs:data="{&quot;newLined&quot;:true}">R3</tspan></text><text text-anchor="start" transform="matrix(1,0,0,1,0,-10)" svgjs:data="{&quot;leading&quot;:&quot;1.3&quot;}"><tspan dy="0" x="0" svgjs:data="{&quot;newLined&quot;:true}">715k</tspan></text></g>
    <g transform="translate(254,37)">
      <rect id="R3_1" class="node" x="0" y="-5" width="5" height="5" />
      <g id="R3_1" class="port" transform="translate(0,-5)">

      </g>
      <rect id="R3_2" class="node" x="0" y="0" width="5" height="5" />
      <g id="R3_2" class="port" transform="translate(0,0)">

      </g>
    </g>
<g transform="matrix(1,0,0,1,254,453)"><text text-anchor="end" transform="matrix(1,0,0,1,0,-10)" svgjs:data="{&quot;leading&quot;:&quot;1.3&quot;}"><tspan dy="0" x="0" svgjs:data="{&quot;newLined&quot;:true}">C4</tspan></text><text text-anchor="start" transform="matrix(1,0,0,1,0,-10)" svgjs:data="{&quot;leading&quot;:&quot;1.3&quot;}"><tspan dy="0" x="0" svgjs:data="{&quot;newLined&quot;:true}">1uF</tspan></text></g>
    <g transform="translate(254,453)">
      <rect id="C4_1" class="node" x="0" y="-5" width="5" height="5" />
      <g id="C4_1" class="port" transform="translate(0,-5)">

      </g>
      <rect id="C4_2" class="node" x="0" y="0" width="5" height="5" />
      <g id="C4_2" class="port" transform="translate(0,0)">

      </g>
    </g>
<g transform="matrix(1,0,0,1,254,247)"><text text-anchor="end" transform="matrix(1,0,0,1,0,-10)" svgjs:data="{&quot;leading&quot;:&quot;1.3&quot;}"><tspan dy="0" x="0" svgjs:data="{&quot;newLined&quot;:true}">C5</tspan></text><text text-anchor="start" transform="matrix(1,0,0,1,0,-10)" svgjs:data="{&quot;leading&quot;:&quot;1.3&quot;}"><tspan dy="0" x="0" svgjs:data="{&quot;newLined&quot;:true}">10nF</tspan></text></g>
    <g transform="translate(254,247)">
      <rect id="C5_1" class="node" x="0" y="-5" width="5" height="5" />
      <g id="C5_1" class="port" transform="translate(0,-5)">

      </g>
      <rect id="C5_2" class="node" x="0" y="0" width="5" height="5" />
      <g id="C5_2" class="port" transform="translate(0,0)">

      </g>
    </g>
<g transform="matrix(1,0,0,1,17,17)"><text text-anchor="end" transform="matrix(1,0,0,1,0,-10)" svgjs:data="{&quot;leading&quot;:&quot;1.3&quot;}"><tspan dy="0" x="0" svgjs:data="{&quot;newLined&quot;:true}">Q6</tspan></text></g>
    <g transform="translate(17,17)">
      <rect id="Q6_1" class="node" x="0" y="0" width="5" height="5" />
      <g id="Q6_1" class="port" transform="translate(0,0)">
        <text id="lbl_Q6_1" class="label" dominant-baseline="bottom" text-anchor="middle" x="2.5" y="-2" width="0" height="0">
          E
        </text>
      </g>
      <rect id="Q6_2" class="node" x="-5" y="0" width="5" height="5" />
      <g id="Q6_2" class="port" transform="translate(-5,0)">
        <text id="lbl_Q6_2" class="label" dominant-baseline="middle" text-anchor="start" x="7" y="2.5" width="0" height="0">
          B
        </text>
      </g>
      <rect id="Q6_3" class="node" x="0" y="-5" width="5" height="5" />
      <g id="Q6_3" class="port" transform="translate(0,-5)">
        <text id="lbl_Q6_3" class="label" dominant-baseline="hanging" text-anchor="middle" x="2.5" y="7" width="0" height="0">
          C
        </text>
      </g>
    </g>
<g transform="matrix(1,0,0,1,304,404.5)"><text text-anchor="end" transform="matrix(1,0,0,1,0,-10)" svgjs:data="{&quot;leading&quot;:&quot;1.3&quot;}"><tspan dy="0" x="0" svgjs:data="{&quot;newLined&quot;:true}">D7</tspan></text></g>
    <g transform="translate(304,404.5)">
      <rect id="D7_1" class="node" x="-5" y="0" width="5" height="5" />
      <g id="D7_1" class="port" transform="translate(-5,0)">
        <text id="lbl_D7_1" class="label" dominant-baseline="middle" text-anchor="start" x="7" y="2.5" width="0" height="0">
          K
        </text>
      </g>
      <rect id="D7_2" class="node" x="0" y="0" width="5" height="5" />
      <g id="D7_2" class="port" transform="translate(0,0)">
        <text id="lbl_D7_2" class="label" dominant-baseline="middle" text-anchor="end" x="-2" y="2.5" width="0" height="0">
          A
        </text>
      </g>
    </g>
<g transform="matrix(1,0,0,1,254,177)"><text text-anchor="end" transform="matrix(1,0,0,1,0,-10)" svgjs:data="{&quot;leading&quot;:&quot;1.3&quot;}"><tspan dy="0" x="0" svgjs:data="{&quot;newLined&quot;:true}">R8</tspan></text></g>
    <g transform="translate(254,177)">
      <rect id="R8_1" class="node" x="0" y="-5" width="5" height="5" />
      <g id="R8_1" class="port" transform="translate(0,-5)">

      </g>
      <rect id="R8_2" class="node" x="0" y="0" width="5" height="5" />
      <g id="R8_2" class="port" transform="translate(0,0)">

      </g>
    </g>
    <rect id="PinHead9" class="node" x="257" y="292" width="0" height="95" />
    <g transform="translate(257,292)">
      <rect id="PinHead9_1" class="node" x="-5" y="70" width="5" height="5" />
      <g id="PinHead9_1" class="port" transform="translate(-5,70)">
        <text id="lbl_PinHead9_1" class="label" dominant-baseline="middle" text-anchor="start" x="7" y="2.5" width="0" height="0">
          P1
        </text>
      </g>
      <rect id="PinHead9_2" class="node" x="-5" y="45" width="5" height="5" />
      <g id="PinHead9_2" class="port" transform="translate(-5,45)">
        <text id="lbl_PinHead9_2" class="label" dominant-baseline="middle" text-anchor="start" x="7" y="2.5" width="0" height="0">
          P2
        </text>
      </g>
      <rect id="PinHead9_3" class="node" x="-5" y="20" width="5" height="5" />
      <g id="PinHead9_3" class="port" transform="translate(-5,20)">
        <text id="lbl_PinHead9_3" class="label" dominant-baseline="middle" text-anchor="start" x="7" y="2.5" width="0" height="0">
          P3
        </text>
      </g>
    </g>
  </g>
</svg>