<svg version="1.1" xmlns="http://www.w3.org/2000/svg" width="525.8" height="772.75" xmlns:xlink="http://www.w3.org/1999/xlink" xmlns:svgjs="http://svgjs.dev/svgjs">
  <defs>
    <style type="text/css">
      <![CDATA[
        rect {
          stroke-width: 1;
          shape-rendering: crispEdges;
        }
        rect.port {
          opacity: 1;
          fill: #326CB2;
        }
        text {
          font-size: 10px;
          font-family: sans-serif;
          text-align: left;
        }
        g.port > text {
          font-size: 8px;
        }
        polyline {
          fill: none;
          stroke: black;
          stroke-width: 1;
          shape-rendering: crispEdges;
        }
        path {
          fill: none;
          stroke: black;
          stroke-width: 1;
          shape-rendering: crispEdges;
        }
        line {
          fill: none;
          shape-rendering: crispEdges;
        }
        rect {
          stroke: black;
        }
        circle {
          stroke: black;
        }
        .error { 
          stroke: red !important;
        }
      ]]>
    </style>
    <marker id="arrow" markerWidth="10" markerHeight="8" refX="10" refY="4" orient="auto">
      <path d="M0,7 L10,4 L0,1 L0,7" style="fill: #000000;" />
    </marker>
  </defs>
  <g>
    <polyline points="187,600 187,580 110,580 110,650 130,650" id="e_U3_8_U3_4_VCC" class="edge" />
    <polyline points="187,600 187,367 285,367 285,223 385,223" id="e_U3_8_PinHead11_1_VCC" class="edge" />
    <g>
      <circle cx="285.3" cy="367" r="3" class="junction" />
      <circle cx="285.3" cy="223.5" r="3" class="junction" />
    </g>
    <polyline points="187,600 187,367 397,367 397,347" id="e_U3_8_R4_2_VCC" class="edge" />
    <polyline points="187,600 187,367 285,367 285,131 397,131 397,111" id="e_U3_8_#PWR1_1_VCC" class="edge" />
    <polyline points="187,700 187,740 345,740 345,173 385,173" id="e_U3_1_PinHead11_3_GND" class="edge" />
    <g>
      <circle cx="345.3" cy="740.75" r="3" class="junction" />
      <circle cx="345.3" cy="173.5" r="3" class="junction" />
    </g>
    <polyline points="187,700 187,740 345,740 345,71 397,71 397,51" id="e_U3_1_C7_2_GND" class="edge" />
    <polyline points="187,700 187,740 397,740 397,720" id="e_U3_1_C6_2_GND" class="edge" />
    <polyline points="187,700 187,740 345,740 345,286 449,286" id="e_U3_1_D9_1_GND" class="edge" />
    <g>
      <circle cx="345.3" cy="286" r="3" class="junction" />
    </g>
    <polyline points="187,700 187,740 345,740 345,387 397,387 397,407" id="e_U3_1_#PWR2_1_GND" class="edge" />
    <g>
      <circle cx="345.3" cy="387" r="3" class="junction" />
    </g>
    <polyline points="130,674 110,674 110,720 265,720 265,650 245,650" id="e_U3_2_U3_6_Net_2" class="edge" />
    <polyline points="130,674 90,674 90,760 365,760 365,527 397,527 397,507" id="e_U3_2_R5_2_Net_2" class="edge" />
    <polyline points="130,674 90,674 90,760 365,760 365,681 397,681 397,701" id="e_U3_2_C6_1_Net_2" class="edge" />
    <g>
      <circle cx="365.3" cy="681.75" r="3" class="junction" />
    </g>
    <polyline points="245,674 325,674 325,266 397,266 397,307" id="e_U3_7_R4_1_Net_3" class="edge" />
    <polyline points="245,674 325,674 325,447 397,447 397,467" id="e_U3_7_R5_1_Net_3" class="edge" />
    <g>
      <circle cx="325.3" cy="447" r="3" class="junction" />
    </g>
    <polyline points="130,627 90,627 90,12 397,12 397,32" id="e_U3_5_C7_1_Net_5" class="edge" />
    <polyline points="397,567 397,547 513,547 513,286 493,286" id="e_R10_1_D9_2_Net_6" class="edge" />
    <polyline points="245,627 305,627 305,198 385,198" id="e_U3_3_PinHead11_2_Net_7" class="edge" />
    <g>
      <circle cx="305.3" cy="627" r="3" class="junction" />
    </g>
    <polyline points="245,627 397,627 397,607" id="e_U3_3_R10_2_Net_7" class="edge" />
    <rect id="PinHead11" class="node" x="390.3" y="151" width="0" height="95" />
    <g transform="translate(390.3,151)">
      <rect id="PinHead11_1" class="node" x="-5" y="70" width="5" height="5" />
      <g id="PinHead11_1" class="port" transform="translate(-5,70)">
        <text id="lbl_PinHead11_1" class="label" dominant-baseline="middle" text-anchor="start" x="7" y="2.5" width="0" height="0">
          P1
        </text>
      </g>
      <rect id="PinHead11_2" class="node" x="-5" y="45" width="5" height="5" />
      <g id="PinHead11_2" class="port" transform="translate(-5,45)">
        <text id="lbl_PinHead11_2" class="label" dominant-baseline="middle" text-anchor="start" x="7" y="2.5" width="0" height="0">
          P2
        </text>
      </g>
      <rect id="PinHead11_3" class="node" x="-5" y="20" width="5" height="5" />
      <g id="PinHead11_3" class="port" transform="translate(-5,20)">
        <text id="lbl_PinHead11_3" class="label" dominant-baseline="middle" text-anchor="start" x="7" y="2.5" width="0" height="0">
          P3
        </text>
      </g>
    </g>
<g transform="matrix(1,0,0,1,397.3,587)"><polyline points="0,-13.5 0,-15" fill="none" stroke-width="1"></polyline><polyline points="0,13.5 0,15" fill="none" stroke-width="1"></polyline><polyline points="0,-4.5 6,-6.75 0,-9 -6,-11.25 0,-13.5" fill="none" stroke-width="1"></polyline><polyline points="0,4.5 6,2.25 0,0 -6,-2.25 0,-4.5" fill="none" stroke-width="1"></polyline><polyline points="0,13.5 6,11.25 0,9 -6,6.75 0,4.5" fill="none" stroke-width="1"></polyline><text text-anchor="end" transform="matrix(1,0,0,1,-6,-25)" svgjs:data="{&quot;leading&quot;:&quot;1.3&quot;}"><tspan dy="0" x="0" svgjs:data="{&quot;newLined&quot;:true}">R10</tspan></text></g>
    <g transform="translate(391.3,572)">
      <rect id="R10_1" class="node" x="3.5" y="-5" width="5" height="5" />
      <g id="R10_1" class="port" transform="translate(3.5,-5)">

      </g>
      <rect id="R10_2" class="node" x="3.5" y="30" width="5" height="5" />
      <g id="R10_2" class="port" transform="translate(3.5,30)">

      </g>
    </g>
<g transform="matrix(1,0,0,1,33.65,33.65)"><circle r="16.65" cx="7.499999999999998" cy="0" fill="none" stroke-width="1"></circle><polyline points="3.75,3.75 15,15" fill="none" stroke-width="1"></polyline><polyline points="3.75,-3.75 15,-15 15,-15" fill="none" stroke-width="1"></polyline><polyline points="3.75,11.25 3.75,-11.25 3.75,-11.25" fill="none" stroke-width="1"></polyline><polyline points="13.5,-10.5 10.5,-13.5 7.5,-7.5 13.5,-10.5 13.5,-10.5" fill="none" stroke-width="1"></polyline><text text-anchor="end" transform="matrix(1,0,0,1,-16.65,-26.65)" svgjs:data="{&quot;leading&quot;:&quot;1.3&quot;}"><tspan dy="0" x="0" svgjs:data="{&quot;newLined&quot;:true}">Q8</tspan></text></g>
    <g transform="translate(17,17)">
      <rect id="Q8_1" class="node" x="14.149999999999999" y="33.3" width="5" height="5" />
      <g id="Q8_1" class="port" transform="translate(14.149999999999999,33.3)">
        <text id="lbl_Q8_1" class="label" dominant-baseline="bottom" text-anchor="middle" x="2.5" y="-2" width="0" height="0">
          E
        </text>
      </g>
      <rect id="Q8_2" class="node" x="-5" y="14.149999999999999" width="5" height="5" />
      <g id="Q8_2" class="port" transform="translate(-5,14.149999999999999)">
        <text id="lbl_Q8_2" class="label" dominant-baseline="middle" text-anchor="start" x="7" y="2.5" width="0" height="0">
          B
        </text>
      </g>
      <rect id="Q8_3" class="node" x="14.149999999999999" y="-5" width="5" height="5" />
      <g id="Q8_3" class="port" transform="translate(14.149999999999999,-5)">
        <text id="lbl_Q8_3" class="label" dominant-baseline="hanging" text-anchor="middle" x="2.5" y="7" width="0" height="0">
          C
        </text>
      </g>
    </g>
<g transform="matrix(1,0,0,1,397.3,41.5)"><polyline points="-12,-4.5 12,-4.5" fill="none" stroke-width="1"></polyline><polyline points="-12,4.5 12,4.5" fill="none" stroke-width="1"></polyline><text text-anchor="end" transform="matrix(1,0,0,1,-12,-14.5)" svgjs:data="{&quot;leading&quot;:&quot;1.3&quot;}"><tspan dy="0" x="0" svgjs:data="{&quot;newLined&quot;:true}">C7</tspan></text><text text-anchor="start" transform="matrix(1,0,0,1,12,-14.5)" svgjs:data="{&quot;leading&quot;:&quot;1.3&quot;}"><tspan dy="0" x="0" svgjs:data="{&quot;newLined&quot;:true}">10nF</tspan></text></g>
    <g transform="translate(385.3,37)">
      <rect id="C7_1" class="node" x="9.5" y="-5" width="5" height="5" />
      <g id="C7_1" class="port" transform="translate(9.5,-5)">

      </g>
      <rect id="C7_2" class="node" x="9.5" y="9" width="5" height="5" />
      <g id="C7_2" class="port" transform="translate(9.5,9)">

      </g>
    </g>
<g transform="matrix(1,0,0,1,397.3,711.25)"><polyline points="-12,-4.5 12,-4.5" fill="none" stroke-width="1"></polyline><polyline points="-12,4.5 12,4.5" fill="none" stroke-width="1"></polyline><text text-anchor="end" transform="matrix(1,0,0,1,-12,-14.5)" svgjs:data="{&quot;leading&quot;:&quot;1.3&quot;}"><tspan dy="0" x="0" svgjs:data="{&quot;newLined&quot;:true}">C6</tspan></text><text text-anchor="start" transform="matrix(1,0,0,1,12,-14.5)" svgjs:data="{&quot;leading&quot;:&quot;1.3&quot;}"><tspan dy="0" x="0" svgjs:data="{&quot;newLined&quot;:true}">1uF</tspan></text></g>
    <g transform="translate(385.3,706.75)">
      <rect id="C6_1" class="node" x="9.5" y="-5" width="5" height="5" />
      <g id="C6_1" class="port" transform="translate(9.5,-5)">

      </g>
      <rect id="C6_2" class="node" x="9.5" y="9" width="5" height="5" />
      <g id="C6_2" class="port" transform="translate(9.5,9)">

      </g>
    </g>
<g transform="matrix(1,0,0,1,397.3,487)"><polyline points="0,-13.5 0,-15" fill="none" stroke-width="1"></polyline><polyline points="0,13.5 0,15" fill="none" stroke-width="1"></polyline><polyline points="0,-4.5 6,-6.75 0,-9 -6,-11.25 0,-13.5" fill="none" stroke-width="1"></polyline><polyline points="0,4.5 6,2.25 0,0 -6,-2.25 0,-4.5" fill="none" stroke-width="1"></polyline><polyline points="0,13.5 6,11.25 0,9 -6,6.75 0,4.5" fill="none" stroke-width="1"></polyline><text text-anchor="end" transform="matrix(1,0,0,1,-6,-25)" svgjs:data="{&quot;leading&quot;:&quot;1.3&quot;}"><tspan dy="0" x="0" svgjs:data="{&quot;newLined&quot;:true}">R5</tspan></text><text text-anchor="start" transform="matrix(1,0,0,1,6,-25)" svgjs:data="{&quot;leading&quot;:&quot;1.3&quot;}"><tspan dy="0" x="0" svgjs:data="{&quot;newLined&quot;:true}">715k</tspan></text></g>
    <g transform="translate(391.3,472)">
      <rect id="R5_1" class="node" x="3.5" y="-5" width="5" height="5" />
      <g id="R5_1" class="port" transform="translate(3.5,-5)">

      </g>
      <rect id="R5_2" class="node" x="3.5" y="30" width="5" height="5" />
      <g id="R5_2" class="port" transform="translate(3.5,30)">

      </g>
    </g>
<g transform="matrix(1,0,0,1,397.3,327)"><polyline points="0,-13.5 0,-15" fill="none" stroke-width="1"></polyline><polyline points="0,13.5 0,15" fill="none" stroke-width="1"></polyline><polyline points="0,-4.5 6,-6.75 0,-9 -6,-11.25 0,-13.5" fill="none" stroke-width="1"></polyline><polyline points="0,4.5 6,2.25 0,0 -6,-2.25 0,-4.5" fill="none" stroke-width="1"></polyline><polyline points="0,13.5 6,11.25 0,9 -6,6.75 0,4.5" fill="none" stroke-width="1"></polyline><text text-anchor="end" transform="matrix(1,0,0,1,-6,-25)" svgjs:data="{&quot;leading&quot;:&quot;1.3&quot;}"><tspan dy="0" x="0" svgjs:data="{&quot;newLined&quot;:true}">R4</tspan></text><text text-anchor="start" transform="matrix(1,0,0,1,6,-25)" svgjs:data="{&quot;leading&quot;:&quot;1.3&quot;}"><tspan dy="0" x="0" svgjs:data="{&quot;newLined&quot;:true}">10k</tspan></text></g>
    <g transform="translate(391.3,312)">
      <rect id="R4_1" class="node" x="3.5" y="-5" width="5" height="5" />
      <g id="R4_1" class="port" transform="translate(3.5,-5)">

      </g>
      <rect id="R4_2" class="node" x="3.5" y="30" width="5" height="5" />
      <g id="R4_2" class="port" transform="translate(3.5,30)">

      </g>
    </g>
<g transform="matrix(1,0,0,1,187.8,650.75)"><rect width="105" height="90" x="-52.5" y="-45" fill="none" stroke-width="1"></rect><rect width="105" height="90" x="-52.5" y="-45" fill="none" stroke-width="1"></rect><text text-anchor="end" transform="matrix(1,0,0,1,-52.5,-55)" svgjs:data="{&quot;leading&quot;:&quot;1.3&quot;}"><tspan dy="0" x="0" svgjs:data="{&quot;newLined&quot;:true}">U3</tspan></text></g>
    <g transform="translate(135.3,605.75)">
      <rect id="U3_1" class="node" x="50" y="90" width="5" height="5" />
      <g id="U3_1" class="port" transform="translate(50,90)">
        <text id="lbl_U3_1" class="label" dominant-baseline="bottom" text-anchor="middle" x="2.5" y="-2" width="0" height="0">
          GND
        </text>
      </g>
      <rect id="U3_2" class="node" x="-5" y="66.25" width="5" height="5" />
      <g id="U3_2" class="port" transform="translate(-5,66.25)">
        <text id="lbl_U3_2" class="label" dominant-baseline="middle" text-anchor="start" x="7" y="2.5" width="0" height="0">
          TR
        </text>
      </g>
      <rect id="U3_3" class="node" x="105" y="18.75" width="5" height="5" />
      <g id="U3_3" class="port" transform="translate(105,18.75)">
        <text id="lbl_U3_3" class="label" dominant-baseline="middle" text-anchor="end" x="-2" y="2.5" width="0" height="0">
          Q
        </text>
      </g>
      <rect id="U3_4" class="node" x="-5" y="42.5" width="5" height="5" />
      <g id="U3_4" class="port" transform="translate(-5,42.5)">
        <text id="lbl_U3_4" class="label" dominant-baseline="middle" text-anchor="start" x="7" y="2.5" width="0" height="0">
          R
        </text>
      </g>
      <rect id="U3_5" class="node" x="-5" y="18.75" width="5" height="5" />
      <g id="U3_5" class="port" transform="translate(-5,18.75)">
        <text id="lbl_U3_5" class="label" dominant-baseline="middle" text-anchor="start" x="7" y="2.5" width="0" height="0">
          CV
        </text>
      </g>
      <rect id="U3_6" class="node" x="105" y="42.5" width="5" height="5" />
      <g id="U3_6" class="port" transform="translate(105,42.5)">
        <text id="lbl_U3_6" class="label" dominant-baseline="middle" text-anchor="end" x="-2" y="2.5" width="0" height="0">
          THR
        </text>
      </g>
      <rect id="U3_7" class="node" x="105" y="66.25" width="5" height="5" />
      <g id="U3_7" class="port" transform="translate(105,66.25)">
        <text id="lbl_U3_7" class="label" dominant-baseline="middle" text-anchor="end" x="-2" y="2.5" width="0" height="0">
          DIS
        </text>
      </g>
      <rect id="U3_8" class="node" x="50" y="-5" width="5" height="5" />
      <g id="U3_8" class="port" transform="translate(50,-5)">
        <text id="lbl_U3_8" class="label" dominant-baseline="hanging" text-anchor="middle" x="2.5" y="7" width="0" height="0">
          VCC
        </text>
      </g>
    </g>
<g transform="matrix(1,0,0,1,397.3,419.5)"><polyline points="0,0 0,-7.5 7.5,-7.5 0,-15 -7.5,-7.5 0,-7.5" fill="none" stroke-width="1"></polyline><text text-anchor="end" transform="matrix(1,0,0,1,-7.5,-17.5)" svgjs:data="{&quot;leading&quot;:&quot;1.3&quot;}"><tspan dy="0" x="0" svgjs:data="{&quot;newLined&quot;:true}">#PWR2</tspan></text></g>
    <g transform="translate(389.8,412)">
      <rect id="#PWR2_1" class="node" x="5" y="-5" width="5" height="5" />
      <g id="#PWR2_1" class="port" transform="translate(5,-5)">
        <text id="lbl_#PWR2_1" class="label" dominant-baseline="hanging" text-anchor="middle" x="2.5" y="7" width="0" height="0">
          GND
        </text>
      </g>
    </g>
<g transform="matrix(1,0,0,1,397.3,98.5)"><polyline points="-4.5,7.5 0,15" fill="none" stroke-width="1"></polyline><polyline points="0,0 0,15" fill="none" stroke-width="1"></polyline><polyline points="0,15 4.5,7.5" fill="none" stroke-width="1"></polyline><text text-anchor="end" transform="matrix(1,0,0,1,-4.5,-17.5)" svgjs:data="{&quot;leading&quot;:&quot;1.3&quot;}"><tspan dy="0" x="0" svgjs:data="{&quot;newLined&quot;:true}">#PWR1</tspan></text></g>
    <g transform="translate(392.8,91)">
      <rect id="#PWR1_1" class="node" x="2" y="15" width="5" height="5" />
      <g id="#PWR1_1" class="port" transform="translate(2,15)">
        <text id="lbl_#PWR1_1" class="label" dominant-baseline="bottom" text-anchor="middle" x="2.5" y="-2" width="0" height="0">
          VCC
        </text>
      </g>
    </g>
<g transform="matrix(1,0,0,1,471.55,286)"><polyline points="-7.5,-7.5 -7.5,7.5" fill="none" stroke-width="1"></polyline><polyline points="-7.5,0 7.5,0" fill="none" stroke-width="1"></polyline><polyline points="7.5,-7.5 7.5,7.5 -7.5,0 7.5,-7.5" fill="none" stroke-width="1"></polyline><polyline points="-18,-4.5 -27,-13.5 -22.5,-13.5 -27,-13.5 -27,-9" fill="none" stroke-width="1"></polyline><polyline points="-10.5,-4.5 -19.5,-13.5 -15,-13.5 -19.5,-13.5 -19.5,-9" fill="none" stroke-width="1"></polyline><text text-anchor="end" transform="matrix(1,0,0,1,-17.25,-20.5)" svgjs:data="{&quot;leading&quot;:&quot;1.3&quot;}"><tspan dy="0" x="0" svgjs:data="{&quot;newLined&quot;:true}">D9</tspan></text></g>
    <g transform="translate(454.3,275.5)">
      <rect id="D9_1" class="node" x="-5" y="8" width="5" height="5" />
      <g id="D9_1" class="port" transform="translate(-5,8)">
        <text id="lbl_D9_1" class="label" dominant-baseline="middle" text-anchor="start" x="7" y="2.5" width="0" height="0">
          K
        </text>
      </g>
      <rect id="D9_2" class="node" x="34.5" y="8" width="5" height="5" />
      <g id="D9_2" class="port" transform="translate(34.5,8)">
        <text id="lbl_D9_2" class="label" dominant-baseline="middle" text-anchor="end" x="-2" y="2.5" width="0" height="0">
          A
        </text>
      </g>
    </g>
  </g>
</svg>